<?xml version="1.0" encoding="UTF-8"?>
<svg version="1.1" xmlns="http://www.w3.org/2000/svg" width="1366" height="619">
<path d="M0 0 C450.78 0 901.56 0 1366 0 C1366 204.27 1366 408.54 1366 619 C915.22 619 464.44 619 0 619 C0 414.73 0 210.46 0 0 Z " fill="#BFC4EC" transform="translate(0,0)"/>
<path d="M0 0 C0.7961185 -0.00666801 1.59223699 -0.01333602 2.41248029 -0.02020609 C5.09110241 -0.03650156 7.76827534 -0.01703588 10.44686127 0.00215912 C12.38215037 -0.00216811 14.31743562 -0.00868249 16.25271082 -0.01720095 C21.57926327 -0.03423924 26.90534767 -0.01997853 32.23187566 -0.00068617 C37.9729238 0.01470591 43.71391328 0.001348 49.45496368 -0.00843048 C60.70502474 -0.0229776 71.95490572 -0.01070226 83.20494974 0.01068276 C96.29808632 0.03466033 109.39118134 0.03298039 122.48433501 0.03037685 C146.54738308 0.02657266 170.61033966 0.0495374 194.67335884 0.08472433 C216.64666672 0.11671835 238.61989355 0.12876801 260.59322357 0.12264252 C262.00409255 0.12225567 263.41496154 0.12186922 264.82583052 0.12148315 C265.52333259 0.1212918 266.22083466 0.12110046 266.93947316 0.12090331 C270.45050366 0.11994899 273.96153417 0.11903462 277.4725647 0.11816406 C278.51154169 0.11790337 278.51154169 0.11790337 279.57150811 0.11763741 C297.92455525 0.11328357 316.27759283 0.12337076 334.63063383 0.13800192 C335.93497282 0.1390414 337.23931181 0.14008089 338.58317623 0.14115188 C341.20308793 0.14324282 343.82299962 0.14535379 346.4429113 0.14748505 C355.57576695 0.1543884 364.70861109 0.15504867 373.84146881 0.1536026 C384.96696883 0.15216472 396.09239597 0.16182042 407.21787179 0.18554896 C412.89740324 0.19743069 418.57683295 0.20451966 424.25637627 0.1987114 C429.45127636 0.19355563 434.64596111 0.20217086 439.84082431 0.221986 C441.72432549 0.2267423 443.60784753 0.22640485 445.4913457 0.22057563 C448.04394312 0.21343651 450.59581866 0.22460766 453.14836121 0.24050903 C453.88623491 0.23405723 454.62410862 0.22760543 455.38434213 0.22095811 C459.77595751 0.27260354 462.58121493 0.9182182 466.0741806 3.62361908 C467.80232258 7.07990303 467.20808523 11.07693141 467.19722843 14.88093758 C467.19838228 15.85743688 467.19953612 16.83393619 467.20072493 17.84002638 C467.20339598 21.14979406 467.19886542 24.45951421 467.19443512 27.76927948 C467.19487072 30.15101552 467.19574542 32.53275151 467.19702429 34.91448724 C467.19880092 40.11220974 467.19744678 45.30992194 467.19338608 50.50764275 C467.18736463 58.23652999 467.18704901 65.96540999 467.18792807 73.69429915 C467.18924372 86.69391051 467.18589391 99.6935168 467.17991066 112.69312668 C467.17399927 125.56954854 467.17014585 138.4459683 467.16905785 151.32239151 C467.16898911 152.12217612 467.16892037 152.92196074 467.16884954 153.74598125 C467.16851122 157.80746924 467.16820984 161.86895724 467.16792267 165.93044524 C467.1658207 194.71879629 467.15907901 223.50714458 467.14962006 252.29549408 C467.14043981 280.26782466 467.13337105 308.24015448 467.12911224 336.21248627 C467.1288416 337.97063096 467.1285709 339.72877566 467.12830013 341.48692036 C467.12611145 355.77194266 467.12406884 370.05696498 467.12206165 384.34198731 C467.11266942 450.43586718 467.09260028 516.52973985 467.0741806 582.62361908 C308.6741806 582.62361908 150.2741806 582.62361908 -12.9258194 582.62361908 C-13.12771261 437.85721286 -13.12771261 437.85721286 -13.16664422 382.46584785 C-13.17685057 367.980974 -13.18729035 353.49610035 -13.19844937 339.0112272 C-13.19979856 337.25910476 -13.20114042 335.50698231 -13.20247484 333.75485986 C-13.22382033 305.80780195 -13.2613476 277.86079453 -13.3073055 249.91376715 C-13.35444194 221.19800284 -13.38524045 192.48226645 -13.39539435 163.7664641 C-13.39683518 159.71331708 -13.39846337 155.66017015 -13.40020561 151.60702324 C-13.40054273 150.80928253 -13.40087984 150.01154181 -13.40122717 149.18962714 C-13.40714258 136.33284161 -13.43035119 123.47614228 -13.45997957 110.61939194 C-13.48937737 97.70329563 -13.50066897 84.78728504 -13.49332628 71.87115643 C-13.48951481 64.19137404 -13.49973785 56.51190463 -13.52980711 48.83217858 C-13.55069994 43.10644532 -13.54566119 37.38097414 -13.53031387 31.65523418 C-13.52819065 29.33213726 -13.53462502 27.00901442 -13.55023531 24.68596897 C-13.57015438 21.54014461 -13.55957847 18.3958789 -13.54105854 15.25008106 C-13.55419361 14.33750881 -13.56732868 13.42493656 -13.58086178 12.4847106 C-13.52408326 8.24863994 -13.2831659 6.15929683 -10.88273066 2.5609414 C-7.19162489 0.14258625 -4.2743091 -0.07112049 0 0 Z " fill="#1D1D1E" transform="translate(448.92581939697266,36.376380920410156)"/>
<path d="M0 0 C1.05975548 0.0070235 1.05975548 0.0070235 2.14092016 0.01418889 C2.89226657 0.011282 3.64361299 0.00837512 4.41772747 0.00538015 C6.96166647 -0.00197918 9.50536873 0.00505089 12.04930639 0.01190388 C13.88101974 0.00960179 15.71273217 0.00642697 17.54444265 0.00244939 C22.59838637 -0.00594183 27.65225509 -0.00175381 32.70619917 0.00442183 C38.14865787 0.00892772 43.59110323 0.00197186 49.03355932 -0.00353801 C59.70343963 -0.01245367 70.37329188 -0.01050036 81.04317331 -0.00471273 C89.71111358 -0.00020476 98.37904596 0.00042042 107.04698706 -0.00176036 C108.27839902 -0.00206683 109.50981099 -0.0023733 110.77853847 -0.00268905 C113.27975194 -0.00332847 115.78096541 -0.00397689 118.28217888 -0.00463423 C141.09256321 -0.01018097 163.90293401 -0.0044187 186.71331578 0.00605096 C207.55155785 0.01554269 228.38977548 0.01469346 249.22801733 0.00512898 C272.62162513 -0.0055724 296.01522016 -0.00979451 319.40883017 -0.00364649 C321.90109014 -0.00300936 324.39335012 -0.00238062 326.8856101 -0.00176036 C328.11200366 -0.00145181 329.33839722 -0.00114326 330.60195422 -0.00082536 C339.26429922 0.00090497 347.92663558 -0.00202078 356.58897924 -0.00671947 C367.13856707 -0.0123158 377.68812513 -0.01083825 388.23770952 -0.00015798 C393.62519677 0.00511561 399.01263428 0.00712693 404.40012121 0.00054371 C409.32477319 -0.00538314 414.24932897 -0.00219508 419.17397213 0.00849882 C420.96262961 0.0107468 422.7512951 0.00956561 424.53994751 0.00474724 C426.95730887 -0.00126899 429.37433371 0.00483643 431.791677 0.01418889 C432.49818065 0.00950655 433.20468431 0.00482422 433.93259716 0 C438.73799782 0.03757041 438.73799782 0.03757041 440.96629858 2.26587117 C441.16586828 4.82337569 441.24616684 7.27025257 441.23192358 9.82837117 C441.23383703 10.57546345 441.23575048 11.32255574 441.23772192 12.09228718 C441.23908356 13.67261287 441.23538858 15.25294975 441.22704077 16.83325398 C441.21634058 19.25636039 441.22693637 21.6787254 441.23973608 24.10180867 C441.23841448 25.63566448 441.23585208 27.16951982 441.23192358 28.70337117 C441.23597204 29.43048298 441.2400205 30.1575948 441.24419165 30.90674031 C441.19622219 36.03594756 441.19622219 36.03594756 438.96629858 38.26587117 C436.53712918 38.4627614 434.22200072 38.53366035 431.791677 38.51755345 C431.04033059 38.52046033 430.28898417 38.52336721 429.51486969 38.52636218 C426.97093069 38.53372152 424.42722843 38.52669144 421.88329077 38.51983845 C420.05157742 38.52214054 418.21986499 38.52531537 416.38815451 38.52929294 C411.33421079 38.53768417 406.28034207 38.53349615 401.22639799 38.5273205 C395.78393929 38.52281461 390.34149393 38.52977047 384.89903784 38.53528035 C374.22915753 38.544196 363.55930528 38.5422427 352.88942385 38.53645507 C344.22148358 38.5319471 335.5535512 38.53132191 326.8856101 38.5335027 C325.65419814 38.53380916 324.42278617 38.53411563 323.15405869 38.53443138 C320.65284522 38.5350708 318.15163175 38.53571923 315.65041828 38.53637657 C292.84003395 38.5419233 270.02966315 38.53616104 247.21928138 38.52569137 C226.38103931 38.51619964 205.54282168 38.51704888 184.70457983 38.52661335 C161.31097203 38.53731473 137.917377 38.54153684 114.52376699 38.53538883 C112.03150702 38.5347517 109.53924704 38.53412296 107.04698706 38.5335027 C105.8205935 38.53319415 104.59419994 38.5328856 103.33064294 38.53256769 C94.66829794 38.53083736 86.00596158 38.53376311 77.34361792 38.5384618 C66.79403009 38.54405814 56.24447204 38.54258059 45.69488764 38.53190032 C40.30740039 38.52662672 34.91996288 38.52461541 29.53247595 38.53119862 C24.60782397 38.53712548 19.68326819 38.53393742 14.75862503 38.52324352 C12.96996755 38.52099554 11.18130206 38.52217673 9.39264965 38.52699509 C6.97528829 38.53301132 4.55826345 38.5269059 2.14092016 38.51755345 C1.43441651 38.52223578 0.72791286 38.52691811 0 38.53174233 C-4.80540066 38.49417192 -4.80540066 38.49417192 -7.03370142 36.26587117 C-7.23327112 33.70836664 -7.31356968 31.26148976 -7.29932642 28.70337117 C-7.30123987 27.95627888 -7.30315332 27.2091866 -7.30512476 26.43945515 C-7.3064864 24.85912946 -7.30279142 23.27879258 -7.29444361 21.69848835 C-7.28374342 19.27538195 -7.29433921 16.85301694 -7.30713892 14.42993367 C-7.30581732 12.89607786 -7.30325492 11.36222251 -7.29932642 9.82837117 C-7.30337488 9.10125935 -7.30742334 8.37414753 -7.31159449 7.62500203 C-7.25424601 1.49292929 -6.20154902 0.04848602 0 0 Z " fill="#2D2D2F" transform="translate(459.0337014198303,197.73412883281708)"/>
<path d="M0 0 C1.05975548 0.0070235 1.05975548 0.0070235 2.14092016 0.01418889 C2.89226657 0.011282 3.64361299 0.00837512 4.41772747 0.00538015 C6.96166647 -0.00197918 9.50536873 0.00505089 12.04930639 0.01190388 C13.88101974 0.00960179 15.71273217 0.00642697 17.54444265 0.00244939 C22.59838637 -0.00594183 27.65225509 -0.00175381 32.70619917 0.00442183 C38.14865787 0.00892772 43.59110323 0.00197186 49.03355932 -0.00353801 C59.70343963 -0.01245367 70.37329188 -0.01050036 81.04317331 -0.00471273 C89.71111358 -0.00020476 98.37904596 0.00042042 107.04698706 -0.00176036 C108.27839902 -0.00206683 109.50981099 -0.0023733 110.77853847 -0.00268905 C113.27975194 -0.00332847 115.78096541 -0.00397689 118.28217888 -0.00463423 C141.09256321 -0.01018097 163.90293401 -0.0044187 186.71331578 0.00605096 C207.55155785 0.01554269 228.38977548 0.01469346 249.22801733 0.00512898 C272.62162513 -0.0055724 296.01522016 -0.00979451 319.40883017 -0.00364649 C321.90109014 -0.00300936 324.39335012 -0.00238062 326.8856101 -0.00176036 C328.11200366 -0.00145181 329.33839722 -0.00114326 330.60195422 -0.00082536 C339.26429922 0.00090497 347.92663558 -0.00202078 356.58897924 -0.00671947 C367.13856707 -0.0123158 377.68812513 -0.01083825 388.23770952 -0.00015798 C393.62519677 0.00511561 399.01263428 0.00712693 404.40012121 0.00054371 C409.32477319 -0.00538314 414.24932897 -0.00219508 419.17397213 0.00849882 C420.96262961 0.0107468 422.7512951 0.00956561 424.53994751 0.00474724 C426.95730887 -0.00126899 429.37433371 0.00483643 431.791677 0.01418889 C432.49818065 0.00950655 433.20468431 0.00482422 433.93259716 0 C438.73799782 0.03757041 438.73799782 0.03757041 440.96629858 2.26587117 C441.16578415 4.7515366 441.24619601 7.12337866 441.23192358 9.60962117 C441.23383703 10.33451741 441.23575048 11.05941365 441.23772192 11.80627644 C441.23908345 13.33952379 441.23538922 14.87278267 441.22704077 16.40600789 C441.21634036 18.75669376 441.22693666 21.10661539 441.23973608 23.45727742 C441.23841448 24.94556036 441.23585207 26.43384282 441.23192358 27.92212117 C441.23597204 28.6273592 441.2400205 29.33259724 441.24419165 30.05920613 C441.19622344 35.03594631 441.19622344 35.03594631 438.96629858 37.26587117 C436.53712918 37.4627614 434.22200072 37.53366035 431.791677 37.51755345 C431.04033059 37.52046033 430.28898417 37.52336721 429.51486969 37.52636218 C426.97093069 37.53372152 424.42722843 37.52669144 421.88329077 37.51983845 C420.05157742 37.52214054 418.21986499 37.52531537 416.38815451 37.52929294 C411.33421079 37.53768417 406.28034207 37.53349615 401.22639799 37.5273205 C395.78393929 37.52281461 390.34149393 37.52977047 384.89903784 37.53528035 C374.22915753 37.544196 363.55930528 37.5422427 352.88942385 37.53645507 C344.22148358 37.5319471 335.5535512 37.53132191 326.8856101 37.5335027 C325.65419814 37.53380916 324.42278617 37.53411563 323.15405869 37.53443138 C320.65284522 37.5350708 318.15163175 37.53571923 315.65041828 37.53637657 C292.84003395 37.5419233 270.02966315 37.53616104 247.21928138 37.52569137 C226.38103931 37.51619964 205.54282168 37.51704888 184.70457983 37.52661335 C161.31097203 37.53731473 137.917377 37.54153684 114.52376699 37.53538883 C112.03150702 37.5347517 109.53924704 37.53412296 107.04698706 37.5335027 C105.8205935 37.53319415 104.59419994 37.5328856 103.33064294 37.53256769 C94.66829794 37.53083736 86.00596158 37.53376311 77.34361792 37.5384618 C66.79403009 37.54405814 56.24447204 37.54258059 45.69488764 37.53190032 C40.30740039 37.52662672 34.91996288 37.52461541 29.53247595 37.53119862 C24.60782397 37.53712548 19.68326819 37.53393742 14.75862503 37.52324352 C12.96996755 37.52099554 11.18130206 37.52217673 9.39264965 37.52699509 C6.97528829 37.53301132 4.55826345 37.5269059 2.14092016 37.51755345 C1.43441651 37.52223578 0.72791286 37.52691811 0 37.53174233 C-4.80540066 37.49417192 -4.80540066 37.49417192 -7.03370142 35.26587117 C-7.23318699 32.78020574 -7.31359885 30.40836367 -7.29932642 27.92212117 C-7.30123987 27.19722493 -7.30315332 26.47232869 -7.30512476 25.72546589 C-7.30648629 24.19221855 -7.30279206 22.65895967 -7.29444361 21.12573445 C-7.2837432 18.77504858 -7.2943395 16.42512694 -7.30713892 14.07446492 C-7.30581732 12.58618198 -7.30325491 11.09789951 -7.29932642 9.60962117 C-7.30337488 8.90438313 -7.30742334 8.19914509 -7.31159449 7.47253621 C-7.25312635 1.40642056 -6.10055691 0.04769642 0 0 Z " fill="#2C2C2E" transform="translate(459.0337014198303,277.7341288328171)"/>
<path d="M0 0 C1.05975548 0.0070235 1.05975548 0.0070235 2.14092016 0.01418889 C2.89226657 0.011282 3.64361299 0.00837512 4.41772747 0.00538015 C6.96166647 -0.00197918 9.50536873 0.00505089 12.04930639 0.01190388 C13.88101974 0.00960179 15.71273217 0.00642697 17.54444265 0.00244939 C22.59838637 -0.00594183 27.65225509 -0.00175381 32.70619917 0.00442183 C38.14865787 0.00892772 43.59110323 0.00197186 49.03355932 -0.00353801 C59.70343963 -0.01245367 70.37329188 -0.01050036 81.04317331 -0.00471273 C89.71111358 -0.00020476 98.37904596 0.00042042 107.04698706 -0.00176036 C108.27839902 -0.00206683 109.50981099 -0.0023733 110.77853847 -0.00268905 C113.27975194 -0.00332847 115.78096541 -0.00397689 118.28217888 -0.00463423 C141.09256321 -0.01018097 163.90293401 -0.0044187 186.71331578 0.00605096 C207.55155785 0.01554269 228.38977548 0.01469346 249.22801733 0.00512898 C272.62162513 -0.0055724 296.01522016 -0.00979451 319.40883017 -0.00364649 C321.90109014 -0.00300936 324.39335012 -0.00238062 326.8856101 -0.00176036 C328.11200366 -0.00145181 329.33839722 -0.00114326 330.60195422 -0.00082536 C339.26429922 0.00090497 347.92663558 -0.00202078 356.58897924 -0.00671947 C367.13856707 -0.0123158 377.68812513 -0.01083825 388.23770952 -0.00015798 C393.62519677 0.00511561 399.01263428 0.00712693 404.40012121 0.00054371 C409.32477319 -0.00538314 414.24932897 -0.00219508 419.17397213 0.00849882 C420.96262961 0.0107468 422.7512951 0.00956561 424.53994751 0.00474724 C426.95730887 -0.00126899 429.37433371 0.00483643 431.791677 0.01418889 C432.49818065 0.00950655 433.20468431 0.00482422 433.93259716 0 C438.73799782 0.03757041 438.73799782 0.03757041 440.96629858 2.26587117 C441.16578415 4.7515366 441.24619601 7.12337866 441.23192358 9.60962117 C441.23383703 10.33451741 441.23575048 11.05941365 441.23772192 11.80627644 C441.23908345 13.33952379 441.23538922 14.87278267 441.22704077 16.40600789 C441.21634036 18.75669376 441.22693666 21.10661539 441.23973608 23.45727742 C441.23841448 24.94556036 441.23585207 26.43384282 441.23192358 27.92212117 C441.23597204 28.6273592 441.2400205 29.33259724 441.24419165 30.05920613 C441.19622344 35.03594631 441.19622344 35.03594631 438.96629858 37.26587117 C436.53712918 37.4627614 434.22200072 37.53366035 431.791677 37.51755345 C431.04033059 37.52046033 430.28898417 37.52336721 429.51486969 37.52636218 C426.97093069 37.53372152 424.42722843 37.52669144 421.88329077 37.51983845 C420.05157742 37.52214054 418.21986499 37.52531537 416.38815451 37.52929294 C411.33421079 37.53768417 406.28034207 37.53349615 401.22639799 37.5273205 C395.78393929 37.52281461 390.34149393 37.52977047 384.89903784 37.53528035 C374.22915753 37.544196 363.55930528 37.5422427 352.88942385 37.53645507 C344.22148358 37.5319471 335.5535512 37.53132191 326.8856101 37.5335027 C325.65419814 37.53380916 324.42278617 37.53411563 323.15405869 37.53443138 C320.65284522 37.5350708 318.15163175 37.53571923 315.65041828 37.53637657 C292.84003395 37.5419233 270.02966315 37.53616104 247.21928138 37.52569137 C226.38103931 37.51619964 205.54282168 37.51704888 184.70457983 37.52661335 C161.31097203 37.53731473 137.917377 37.54153684 114.52376699 37.53538883 C112.03150702 37.5347517 109.53924704 37.53412296 107.04698706 37.5335027 C105.8205935 37.53319415 104.59419994 37.5328856 103.33064294 37.53256769 C94.66829794 37.53083736 86.00596158 37.53376311 77.34361792 37.5384618 C66.79403009 37.54405814 56.24447204 37.54258059 45.69488764 37.53190032 C40.30740039 37.52662672 34.91996288 37.52461541 29.53247595 37.53119862 C24.60782397 37.53712548 19.68326819 37.53393742 14.75862503 37.52324352 C12.96996755 37.52099554 11.18130206 37.52217673 9.39264965 37.52699509 C6.97528829 37.53301132 4.55826345 37.5269059 2.14092016 37.51755345 C1.43441651 37.52223578 0.72791286 37.52691811 0 37.53174233 C-4.80540066 37.49417192 -4.80540066 37.49417192 -7.03370142 35.26587117 C-7.23318699 32.78020574 -7.31359885 30.40836367 -7.29932642 27.92212117 C-7.30123987 27.19722493 -7.30315332 26.47232869 -7.30512476 25.72546589 C-7.30648629 24.19221855 -7.30279206 22.65895967 -7.29444361 21.12573445 C-7.2837432 18.77504858 -7.2943395 16.42512694 -7.30713892 14.07446492 C-7.30581732 12.58618198 -7.30325491 11.09789951 -7.29932642 9.60962117 C-7.30337488 8.90438313 -7.30742334 8.19914509 -7.31159449 7.47253621 C-7.25312635 1.40642056 -6.10055691 0.04769642 0 0 Z " fill="#2D2D2F" transform="translate(459.0337014198303,118.73412883281708)"/>
<path d="M0 0 C1.05975548 0.0070235 1.05975548 0.0070235 2.14092016 0.01418889 C2.89226657 0.011282 3.64361299 0.00837512 4.41772747 0.00538015 C6.96166647 -0.00197918 9.50536873 0.00505089 12.04930639 0.01190388 C13.88101974 0.00960179 15.71273217 0.00642697 17.54444265 0.00244939 C22.59838637 -0.00594183 27.65225509 -0.00175381 32.70619917 0.00442183 C38.14865787 0.00892772 43.59110323 0.00197186 49.03355932 -0.00353801 C59.70343963 -0.01245367 70.37329188 -0.01050036 81.04317331 -0.00471273 C89.71111358 -0.00020476 98.37904596 0.00042042 107.04698706 -0.00176036 C108.27839902 -0.00206683 109.50981099 -0.0023733 110.77853847 -0.00268905 C113.27975194 -0.00332847 115.78096541 -0.00397689 118.28217888 -0.00463423 C141.09256321 -0.01018097 163.90293401 -0.0044187 186.71331578 0.00605096 C207.55155785 0.01554269 228.38977548 0.01469346 249.22801733 0.00512898 C272.62162513 -0.0055724 296.01522016 -0.00979451 319.40883017 -0.00364649 C321.90109014 -0.00300936 324.39335012 -0.00238062 326.8856101 -0.00176036 C328.11200366 -0.00145181 329.33839722 -0.00114326 330.60195422 -0.00082536 C339.26429922 0.00090497 347.92663558 -0.00202078 356.58897924 -0.00671947 C367.13856707 -0.0123158 377.68812513 -0.01083825 388.23770952 -0.00015798 C393.62519677 0.00511561 399.01263428 0.00712693 404.40012121 0.00054371 C409.32477319 -0.00538314 414.24932897 -0.00219508 419.17397213 0.00849882 C420.96262961 0.0107468 422.7512951 0.00956561 424.53994751 0.00474724 C426.95730887 -0.00126899 429.37433371 0.00483643 431.791677 0.01418889 C432.49818065 0.00950655 433.20468431 0.00482422 433.93259716 0 C438.73799782 0.03757041 438.73799782 0.03757041 440.96629858 2.26587117 C441.22508764 5.30688679 441.22508764 5.30688679 441.23192358 9.17212117 C441.23383703 9.85262532 441.23575048 10.53312947 441.23772192 11.23425496 C441.23908321 12.67334563 441.23539063 14.1124486 441.22704077 15.5515157 C441.21633986 17.75736204 441.2269373 19.96239398 441.23973608 22.16821492 C441.23841447 23.56535214 441.23585206 24.96248885 441.23192358 26.35962117 C441.22966772 27.63514851 441.22741186 28.91067585 441.22508764 30.22485554 C440.96629858 33.26587117 440.96629858 33.26587117 438.96629858 35.26587117 C436.53712918 35.4627614 434.22200072 35.53366035 431.791677 35.51755345 C431.04033059 35.52046033 430.28898417 35.52336721 429.51486969 35.52636218 C426.97093069 35.53372152 424.42722843 35.52669144 421.88329077 35.51983845 C420.05157742 35.52214054 418.21986499 35.52531537 416.38815451 35.52929294 C411.33421079 35.53768417 406.28034207 35.53349615 401.22639799 35.5273205 C395.78393929 35.52281461 390.34149393 35.52977047 384.89903784 35.53528035 C374.22915753 35.544196 363.55930528 35.5422427 352.88942385 35.53645507 C344.22148358 35.5319471 335.5535512 35.53132191 326.8856101 35.5335027 C325.65419814 35.53380916 324.42278617 35.53411563 323.15405869 35.53443138 C320.65284522 35.5350708 318.15163175 35.53571923 315.65041828 35.53637657 C292.84003395 35.5419233 270.02966315 35.53616104 247.21928138 35.52569137 C226.38103931 35.51619964 205.54282168 35.51704888 184.70457983 35.52661335 C161.31097203 35.53731473 137.917377 35.54153684 114.52376699 35.53538883 C112.03150702 35.5347517 109.53924704 35.53412296 107.04698706 35.5335027 C105.8205935 35.53319415 104.59419994 35.5328856 103.33064294 35.53256769 C94.66829794 35.53083736 86.00596158 35.53376311 77.34361792 35.5384618 C66.79403009 35.54405814 56.24447204 35.54258059 45.69488764 35.53190032 C40.30740039 35.52662672 34.91996288 35.52461541 29.53247595 35.53119862 C24.60782397 35.53712548 19.68326819 35.53393742 14.75862503 35.52324352 C12.96996755 35.52099554 11.18130206 35.52217673 9.39264965 35.52699509 C6.97528829 35.53301132 4.55826345 35.5269059 2.14092016 35.51755345 C1.43441651 35.52223578 0.72791286 35.52691811 0 35.53174233 C-4.80540066 35.49417192 -4.80540066 35.49417192 -7.03370142 33.26587117 C-7.29249048 30.22485554 -7.29249048 30.22485554 -7.29932642 26.35962117 C-7.30123987 25.67911702 -7.30315332 24.99861287 -7.30512476 24.29748738 C-7.30648605 22.8583967 -7.30279347 21.41929373 -7.29444361 19.98022664 C-7.2837427 17.7743803 -7.29434014 15.56934835 -7.30713892 13.36352742 C-7.30581731 11.9663902 -7.3032549 10.56925349 -7.29932642 9.17212117 C-7.29707056 7.89659382 -7.2948147 6.62106648 -7.29249048 5.30688679 C-6.85258304 0.13755933 -4.69582507 0.03671371 0 0 Z " fill="#F39C13" transform="translate(459.0337014198303,552.7341288328171)"/>
<path d="M0 0 C1.05975548 0.0070235 1.05975548 0.0070235 2.14092016 0.01418889 C2.89226657 0.011282 3.64361299 0.00837512 4.41772747 0.00538015 C6.96166647 -0.00197918 9.50536873 0.00505089 12.04930639 0.01190388 C13.88101974 0.00960179 15.71273217 0.00642697 17.54444265 0.00244939 C22.59838637 -0.00594183 27.65225509 -0.00175381 32.70619917 0.00442183 C38.14865787 0.00892772 43.59110323 0.00197186 49.03355932 -0.00353801 C59.70343963 -0.01245367 70.37329188 -0.01050036 81.04317331 -0.00471273 C89.71111358 -0.00020476 98.37904596 0.00042042 107.04698706 -0.00176036 C108.27839902 -0.00206683 109.50981099 -0.0023733 110.77853847 -0.00268905 C113.27975194 -0.00332847 115.78096541 -0.00397689 118.28217888 -0.00463423 C141.09256321 -0.01018097 163.90293401 -0.0044187 186.71331578 0.00605096 C207.55155785 0.01554269 228.38977548 0.01469346 249.22801733 0.00512898 C272.62162513 -0.0055724 296.01522016 -0.00979451 319.40883017 -0.00364649 C321.90109014 -0.00300936 324.39335012 -0.00238062 326.8856101 -0.00176036 C328.11200366 -0.00145181 329.33839722 -0.00114326 330.60195422 -0.00082536 C339.26429922 0.00090497 347.92663558 -0.00202078 356.58897924 -0.00671947 C367.13856707 -0.0123158 377.68812513 -0.01083825 388.23770952 -0.00015798 C393.62519677 0.00511561 399.01263428 0.00712693 404.40012121 0.00054371 C409.32477319 -0.00538314 414.24932897 -0.00219508 419.17397213 0.00849882 C420.96262961 0.0107468 422.7512951 0.00956561 424.53994751 0.00474724 C426.95730887 -0.00126899 429.37433371 0.00483643 431.791677 0.01418889 C432.49818065 0.00950655 433.20468431 0.00482422 433.93259716 0 C438.73799782 0.03757041 438.73799782 0.03757041 440.96629858 2.26587117 C441.22508764 5.12329304 441.22508764 5.12329304 441.23192358 8.73462117 C441.23450171 10.02755085 441.23707983 11.32048054 441.23973608 12.65258992 C441.23554663 13.327253 441.23135717 14.00191609 441.22704077 14.69702351 C441.21633928 16.75803274 441.22693801 18.81817036 441.23973608 20.87915242 C441.23586889 22.81854695 441.23586889 22.81854695 441.23192358 24.79712117 C441.22966772 25.98885945 441.22741186 27.18059773 441.22508764 28.40844929 C440.96629858 31.26587117 440.96629858 31.26587117 438.96629858 33.26587117 C436.53712918 33.4627614 434.22200072 33.53366035 431.791677 33.51755345 C431.04033059 33.52046033 430.28898417 33.52336721 429.51486969 33.52636218 C426.97093069 33.53372152 424.42722843 33.52669144 421.88329077 33.51983845 C420.05157742 33.52214054 418.21986499 33.52531537 416.38815451 33.52929294 C411.33421079 33.53768417 406.28034207 33.53349615 401.22639799 33.5273205 C395.78393929 33.52281461 390.34149393 33.52977047 384.89903784 33.53528035 C374.22915753 33.544196 363.55930528 33.5422427 352.88942385 33.53645507 C344.22148358 33.5319471 335.5535512 33.53132191 326.8856101 33.5335027 C325.65419814 33.53380916 324.42278617 33.53411563 323.15405869 33.53443138 C320.65284522 33.5350708 318.15163175 33.53571923 315.65041828 33.53637657 C292.84003395 33.5419233 270.02966315 33.53616104 247.21928138 33.52569137 C226.38103931 33.51619964 205.54282168 33.51704888 184.70457983 33.52661335 C161.31097203 33.53731473 137.917377 33.54153684 114.52376699 33.53538883 C112.03150702 33.5347517 109.53924704 33.53412296 107.04698706 33.5335027 C105.8205935 33.53319415 104.59419994 33.5328856 103.33064294 33.53256769 C94.66829794 33.53083736 86.00596158 33.53376311 77.34361792 33.5384618 C66.79403009 33.54405814 56.24447204 33.54258059 45.69488764 33.53190032 C40.30740039 33.52662672 34.91996288 33.52461541 29.53247595 33.53119862 C24.60782397 33.53712548 19.68326819 33.53393742 14.75862503 33.52324352 C12.96996755 33.52099554 11.18130206 33.52217673 9.39264965 33.52699509 C6.97528829 33.53301132 4.55826345 33.5269059 2.14092016 33.51755345 C1.43441651 33.52223578 0.72791286 33.52691811 0 33.53174233 C-4.80540066 33.49417192 -4.80540066 33.49417192 -7.03370142 31.26587117 C-7.29249048 28.40844929 -7.29249048 28.40844929 -7.29932642 24.79712117 C-7.30190454 23.50419148 -7.30448267 22.21126179 -7.30713892 20.87915242 C-7.30294947 20.20448933 -7.29876001 19.52982625 -7.29444361 18.83471882 C-7.28374212 16.77370959 -7.29434085 14.71357197 -7.30713892 12.65258992 C-7.30456079 11.35966023 -7.30198267 10.06673054 -7.29932642 8.73462117 C-7.29707056 7.54288289 -7.2948147 6.3511446 -7.29249048 5.12329304 C-6.83565098 0.07909542 -4.54267284 0.03551631 0 0 Z " fill="#2D2D2F" transform="translate(459.0337014198303,507.7341288328171)"/>
<path d="M0 0 C1.05975548 0.0070235 1.05975548 0.0070235 2.14092016 0.01418889 C2.89226657 0.011282 3.64361299 0.00837512 4.41772747 0.00538015 C6.96166647 -0.00197918 9.50536873 0.00505089 12.04930639 0.01190388 C13.88101974 0.00960179 15.71273217 0.00642697 17.54444265 0.00244939 C22.59838637 -0.00594183 27.65225509 -0.00175381 32.70619917 0.00442183 C38.14865787 0.00892772 43.59110323 0.00197186 49.03355932 -0.00353801 C59.70343963 -0.01245367 70.37329188 -0.01050036 81.04317331 -0.00471273 C89.71111358 -0.00020476 98.37904596 0.00042042 107.04698706 -0.00176036 C108.27839902 -0.00206683 109.50981099 -0.0023733 110.77853847 -0.00268905 C113.27975194 -0.00332847 115.78096541 -0.00397689 118.28217888 -0.00463423 C141.09256321 -0.01018097 163.90293401 -0.0044187 186.71331578 0.00605096 C207.55155785 0.01554269 228.38977548 0.01469346 249.22801733 0.00512898 C272.62162513 -0.0055724 296.01522016 -0.00979451 319.40883017 -0.00364649 C321.90109014 -0.00300936 324.39335012 -0.00238062 326.8856101 -0.00176036 C328.11200366 -0.00145181 329.33839722 -0.00114326 330.60195422 -0.00082536 C339.26429922 0.00090497 347.92663558 -0.00202078 356.58897924 -0.00671947 C367.13856707 -0.0123158 377.68812513 -0.01083825 388.23770952 -0.00015798 C393.62519677 0.00511561 399.01263428 0.00712693 404.40012121 0.00054371 C409.32477319 -0.00538314 414.24932897 -0.00219508 419.17397213 0.00849882 C420.96262961 0.0107468 422.7512951 0.00956561 424.53994751 0.00474724 C426.95730887 -0.00126899 429.37433371 0.00483643 431.791677 0.01418889 C432.49818065 0.00950655 433.20468431 0.00482422 433.93259716 0 C438.73799782 0.03757041 438.73799782 0.03757041 440.96629858 2.26587117 C441.22508764 5.12329304 441.22508764 5.12329304 441.23192358 8.73462117 C441.23450171 10.02755085 441.23707983 11.32048054 441.23973608 12.65258992 C441.23554663 13.327253 441.23135717 14.00191609 441.22704077 14.69702351 C441.21633928 16.75803274 441.22693801 18.81817036 441.23973608 20.87915242 C441.23586889 22.81854695 441.23586889 22.81854695 441.23192358 24.79712117 C441.22966772 25.98885945 441.22741186 27.18059773 441.22508764 28.40844929 C440.96629858 31.26587117 440.96629858 31.26587117 438.96629858 33.26587117 C436.53712918 33.4627614 434.22200072 33.53366035 431.791677 33.51755345 C431.04033059 33.52046033 430.28898417 33.52336721 429.51486969 33.52636218 C426.97093069 33.53372152 424.42722843 33.52669144 421.88329077 33.51983845 C420.05157742 33.52214054 418.21986499 33.52531537 416.38815451 33.52929294 C411.33421079 33.53768417 406.28034207 33.53349615 401.22639799 33.5273205 C395.78393929 33.52281461 390.34149393 33.52977047 384.89903784 33.53528035 C374.22915753 33.544196 363.55930528 33.5422427 352.88942385 33.53645507 C344.22148358 33.5319471 335.5535512 33.53132191 326.8856101 33.5335027 C325.65419814 33.53380916 324.42278617 33.53411563 323.15405869 33.53443138 C320.65284522 33.5350708 318.15163175 33.53571923 315.65041828 33.53637657 C292.84003395 33.5419233 270.02966315 33.53616104 247.21928138 33.52569137 C226.38103931 33.51619964 205.54282168 33.51704888 184.70457983 33.52661335 C161.31097203 33.53731473 137.917377 33.54153684 114.52376699 33.53538883 C112.03150702 33.5347517 109.53924704 33.53412296 107.04698706 33.5335027 C105.8205935 33.53319415 104.59419994 33.5328856 103.33064294 33.53256769 C94.66829794 33.53083736 86.00596158 33.53376311 77.34361792 33.5384618 C66.79403009 33.54405814 56.24447204 33.54258059 45.69488764 33.53190032 C40.30740039 33.52662672 34.91996288 33.52461541 29.53247595 33.53119862 C24.60782397 33.53712548 19.68326819 33.53393742 14.75862503 33.52324352 C12.96996755 33.52099554 11.18130206 33.52217673 9.39264965 33.52699509 C6.97528829 33.53301132 4.55826345 33.5269059 2.14092016 33.51755345 C1.43441651 33.52223578 0.72791286 33.52691811 0 33.53174233 C-4.80540066 33.49417192 -4.80540066 33.49417192 -7.03370142 31.26587117 C-7.29249048 28.40844929 -7.29249048 28.40844929 -7.29932642 24.79712117 C-7.30190454 23.50419148 -7.30448267 22.21126179 -7.30713892 20.87915242 C-7.30294947 20.20448933 -7.29876001 19.52982625 -7.29444361 18.83471882 C-7.28374212 16.77370959 -7.29434085 14.71357197 -7.30713892 12.65258992 C-7.30456079 11.35966023 -7.30198267 10.06673054 -7.29932642 8.73462117 C-7.29707056 7.54288289 -7.2948147 6.3511446 -7.29249048 5.12329304 C-6.83565098 0.07909542 -4.54267284 0.03551631 0 0 Z " fill="#2C2C2E" transform="translate(459.0337014198303,432.7341288328171)"/>
<path d="M0 0 C1.05975548 0.0070235 1.05975548 0.0070235 2.14092016 0.01418889 C2.89226657 0.011282 3.64361299 0.00837512 4.41772747 0.00538015 C6.96166647 -0.00197918 9.50536873 0.00505089 12.04930639 0.01190388 C13.88101974 0.00960179 15.71273217 0.00642697 17.54444265 0.00244939 C22.59838637 -0.00594183 27.65225509 -0.00175381 32.70619917 0.00442183 C38.14865787 0.00892772 43.59110323 0.00197186 49.03355932 -0.00353801 C59.70343963 -0.01245367 70.37329188 -0.01050036 81.04317331 -0.00471273 C89.71111358 -0.00020476 98.37904596 0.00042042 107.04698706 -0.00176036 C108.27839902 -0.00206683 109.50981099 -0.0023733 110.77853847 -0.00268905 C113.27975194 -0.00332847 115.78096541 -0.00397689 118.28217888 -0.00463423 C141.09256321 -0.01018097 163.90293401 -0.0044187 186.71331578 0.00605096 C207.55155785 0.01554269 228.38977548 0.01469346 249.22801733 0.00512898 C272.62162513 -0.0055724 296.01522016 -0.00979451 319.40883017 -0.00364649 C321.90109014 -0.00300936 324.39335012 -0.00238062 326.8856101 -0.00176036 C328.11200366 -0.00145181 329.33839722 -0.00114326 330.60195422 -0.00082536 C339.26429922 0.00090497 347.92663558 -0.00202078 356.58897924 -0.00671947 C367.13856707 -0.0123158 377.68812513 -0.01083825 388.23770952 -0.00015798 C393.62519677 0.00511561 399.01263428 0.00712693 404.40012121 0.00054371 C409.32477319 -0.00538314 414.24932897 -0.00219508 419.17397213 0.00849882 C420.96262961 0.0107468 422.7512951 0.00956561 424.53994751 0.00474724 C426.95730887 -0.00126899 429.37433371 0.00483643 431.791677 0.01418889 C432.49818065 0.00950655 433.20468431 0.00482422 433.93259716 0 C438.73799782 0.03757041 438.73799782 0.03757041 440.96629858 2.26587117 C441.22508764 5.12329304 441.22508764 5.12329304 441.23192358 8.73462117 C441.23450171 10.02755085 441.23707983 11.32048054 441.23973608 12.65258992 C441.23554663 13.327253 441.23135717 14.00191609 441.22704077 14.69702351 C441.21633928 16.75803274 441.22693801 18.81817036 441.23973608 20.87915242 C441.23586889 22.81854695 441.23586889 22.81854695 441.23192358 24.79712117 C441.22966772 25.98885945 441.22741186 27.18059773 441.22508764 28.40844929 C440.96629858 31.26587117 440.96629858 31.26587117 438.96629858 33.26587117 C436.53712918 33.4627614 434.22200072 33.53366035 431.791677 33.51755345 C431.04033059 33.52046033 430.28898417 33.52336721 429.51486969 33.52636218 C426.97093069 33.53372152 424.42722843 33.52669144 421.88329077 33.51983845 C420.05157742 33.52214054 418.21986499 33.52531537 416.38815451 33.52929294 C411.33421079 33.53768417 406.28034207 33.53349615 401.22639799 33.5273205 C395.78393929 33.52281461 390.34149393 33.52977047 384.89903784 33.53528035 C374.22915753 33.544196 363.55930528 33.5422427 352.88942385 33.53645507 C344.22148358 33.5319471 335.5535512 33.53132191 326.8856101 33.5335027 C325.65419814 33.53380916 324.42278617 33.53411563 323.15405869 33.53443138 C320.65284522 33.5350708 318.15163175 33.53571923 315.65041828 33.53637657 C292.84003395 33.5419233 270.02966315 33.53616104 247.21928138 33.52569137 C226.38103931 33.51619964 205.54282168 33.51704888 184.70457983 33.52661335 C161.31097203 33.53731473 137.917377 33.54153684 114.52376699 33.53538883 C112.03150702 33.5347517 109.53924704 33.53412296 107.04698706 33.5335027 C105.8205935 33.53319415 104.59419994 33.5328856 103.33064294 33.53256769 C94.66829794 33.53083736 86.00596158 33.53376311 77.34361792 33.5384618 C66.79403009 33.54405814 56.24447204 33.54258059 45.69488764 33.53190032 C40.30740039 33.52662672 34.91996288 33.52461541 29.53247595 33.53119862 C24.60782397 33.53712548 19.68326819 33.53393742 14.75862503 33.52324352 C12.96996755 33.52099554 11.18130206 33.52217673 9.39264965 33.52699509 C6.97528829 33.53301132 4.55826345 33.5269059 2.14092016 33.51755345 C1.43441651 33.52223578 0.72791286 33.52691811 0 33.53174233 C-4.80540066 33.49417192 -4.80540066 33.49417192 -7.03370142 31.26587117 C-7.29249048 28.40844929 -7.29249048 28.40844929 -7.29932642 24.79712117 C-7.30190454 23.50419148 -7.30448267 22.21126179 -7.30713892 20.87915242 C-7.30294947 20.20448933 -7.29876001 19.52982625 -7.29444361 18.83471882 C-7.28374212 16.77370959 -7.29434085 14.71357197 -7.30713892 12.65258992 C-7.30456079 11.35966023 -7.30198267 10.06673054 -7.29932642 8.73462117 C-7.29707056 7.54288289 -7.2948147 6.3511446 -7.29249048 5.12329304 C-6.83565098 0.07909542 -4.54267284 0.03551631 0 0 Z " fill="#2D2D2F" transform="translate(459.0337014198303,356.7341288328171)"/>
<path d="M0 0 C3.63 0 7.26 0 11 0 C11 179.19 11 358.38 11 543 C7.37 543 3.74 543 0 543 C0 363.81 0 184.62 0 0 Z " fill="#C1C1C1" transform="translate(1353,17)"/>
<path d="M0 0 C1.19191452 -0.0127597 2.38382904 -0.02551941 3.61186218 -0.03866577 C4.89728409 -0.04089142 6.18270599 -0.04311707 7.50708008 -0.04541016 C8.84743897 -0.05184316 10.18779647 -0.0585719 11.52815247 -0.06558228 C14.33830006 -0.07754929 17.14832482 -0.081264 19.95849609 -0.08007812 C23.5383072 -0.07987562 27.11731826 -0.10710731 30.69694042 -0.14162254 C33.4672854 -0.16400279 36.23744174 -0.16791221 39.00786781 -0.16685867 C40.96251445 -0.17033099 42.91710218 -0.1919337 44.87162781 -0.21395874 C52.82467053 -0.17343698 59.9611865 0.36820668 65.96183777 6.06997681 C70.78435884 11.37259146 72.5274831 15.5290182 72.32739258 22.70068359 C71.64904355 30.07355912 68.88803257 34.06590432 63.31958008 38.84521484 C58.77328861 41.79114802 54.27771973 42.54259198 48.93530273 42.59692383 C47.74031158 42.61291122 46.54532043 42.62889862 45.31411743 42.64537048 C44.03588104 42.65073318 42.75764465 42.65609589 41.44067383 42.66162109 C40.10077827 42.67060117 38.76088366 42.67972324 37.42098999 42.6889801 C34.61860732 42.70542078 31.81634343 42.71316128 29.01391602 42.71606445 C25.44063597 42.72144636 21.86848738 42.75913706 18.2955265 42.80480862 C15.52951069 42.83469641 12.76376373 42.8417905 9.99760056 42.8427906 C8.04562079 42.84898636 6.09375859 42.87839096 4.14199829 42.90830994 C-4.19975571 42.8661064 -9.35890999 41.63568145 -15.42245483 35.84764099 C-20.30366457 30.49679631 -21.44847969 24.85289573 -21.28979492 17.81787109 C-20.44410522 12.17703357 -17.05119248 8.08362329 -12.84838867 4.41552734 C-8.32797113 1.14543806 -5.6278327 0.04095369 0 0 Z " fill="#212B39" transform="translate(222.910888671875,39.70947265625)"/>
<path d="M0 0 C4.95 0 9.9 0 15 0 C15 203.61 15 407.22 15 617 C10.05 617 5.1 617 0 617 C0 413.39 0 209.78 0 0 Z M2 15 C2 194.19 2 373.38 2 558 C5.63 558 9.26 558 13 558 C13 378.81 13 199.62 13 15 C9.37 15 5.74 15 2 15 Z " fill="#EFEFEF" transform="translate(1351,2)"/>
<path d="M0 0 C2.64 0 5.28 0 8 0 C8 0.33 8 0.66 8 1 C5.69 1 3.38 1 1 1 C1 2.32 1 3.64 1 5 C3.64 5 6.28 5 9 5 C9.33 4.34 9.66 3.68 10 3 C12.31 3 14.62 3 17 3 C17 5.97 17 8.94 17 12 C16.67 12 16.34 12 16 12 C15.67 9.69 15.34 7.38 15 5 C14.34 5 13.68 5 13 5 C12.67 7.31 12.34 9.62 12 12 C8.04 12 4.08 12 0 12 C0 8.04 0 4.08 0 0 Z " fill="#939E9E" transform="translate(630,173)"/>
<path d="M0 0 C1.52150158 3.04300316 1.23899393 5.654085 1 9 C-2.22143276 11.14762184 -3.2595467 11.561068 -7 11 C-9.2855347 8.87208838 -9.92303658 7.52591672 -10.375 4.4375 C-10 2 -10 2 -8.9375 0.125 C-5.82997801 -1.67936761 -3.37200667 -0.81177938 0 0 Z " fill="#6A6967" transform="translate(670,408)"/>
<path d="M0 0 C1 1 1 1 1.25 4.375 C1 8 1 8 -0.1875 9.9375 C-2.68780874 11.40319823 -4.15130656 11.49852135 -7 11 C-9.2855347 8.87208838 -9.92303658 7.52591672 -10.375 4.4375 C-10 2 -10 2 -8.9375 0.125 C-5.85798867 -1.66310335 -3.35666727 -0.74592606 0 0 Z " fill="#BCC9C9" transform="translate(638,94)"/>
<path d="M0 0 C0.33 0.66 0.66 1.32 1 2 C2.27875 1.979375 3.5575 1.95875 4.875 1.9375 C8.75 1.875 8.75 1.875 11 3 C11.59355614 5.64860427 11.74209269 8.29197322 12 11 C10.02090602 11.02686553 8.04171029 11.04633375 6.0625 11.0625 C4.96035156 11.07410156 3.85820313 11.08570313 2.72265625 11.09765625 C0 11 0 11 -1 10 C-1.45459858 7.34536879 -1.70243238 4.67810862 -2 2 C-1.34 2 -0.68 2 0 2 C0 1.34 0 0.68 0 0 Z " fill="#443F48" transform="translate(667,333)"/>
<path d="M0 0 C0.99 0.33 1.98 0.66 3 1 C3 3.64 3 6.28 3 9 C-1.62 9 -6.24 9 -11 9 C-11 7.68 -11 6.36 -11 5 C-10.34 4.67 -9.68 4.34 -9 4 C-9.66 3.67 -10.32 3.34 -11 3 C-10.2575 2.855625 -9.515 2.71125 -8.75 2.5625 C-6.07834232 2.05253619 -6.07834232 2.05253619 -3.8125 1.375 C-2 1 -2 1 0 2 C0 1.34 0 0.68 0 0 Z " fill="#A16318" transform="translate(734,58)"/>
<path d="M0 0 C0.66 0 1.32 0 2 0 C2.33 1.98 2.66 3.96 3 6 C4.32 5.34 5.64 4.68 7 4 C6.443125 4.86625 6.443125 4.86625 5.875 5.75 C4.70833333 8 4.70833333 8 5.875 10.25 C6.24625 10.8275 6.6175 11.405 7 12 C5.68 11.34 4.36 10.68 3 10 C2.67 10.66 2.34 11.32 2 12 C-1.375 12.125 -1.375 12.125 -5 12 C-5.66 11.34 -6.32 10.68 -7 10 C-6.625 7.375 -6.625 7.375 -6 5 C-4.35 4.67 -2.7 4.34 -1 4 C-0.67 2.68 -0.34 1.36 0 0 Z " fill="#788A99" transform="translate(268,54)"/>
<path d="M0 0 C0.33 -0.33 0.66 -0.66 1 -1 C2.66617115 -1.04063832 4.33388095 -1.042721 6 -1 C5.34 1.97 4.68 4.94 4 8 C3.34 8 2.68 8 2 8 C2 7.01 2 6.02 2 5 C1.34 5 0.68 5 0 5 C-0.33 5.99 -0.66 6.98 -1 8 C-2.65 8 -4.3 8 -6 8 C-7.35439668 5.29120665 -7.06501451 2.99066732 -7 0 C-4.3351451 -1.33242745 -2.85216588 -0.58505967 0 0 Z " fill="#AEB3B1" transform="translate(668,97)"/>
<path d="M0 0 C3.46679688 0.04882812 3.46679688 0.04882812 6.93359375 0.09765625 C6.93359375 3.06765625 6.93359375 6.03765625 6.93359375 9.09765625 C3.96359375 9.09765625 0.99359375 9.09765625 -2.06640625 9.09765625 C-3.43264299 6.36518277 -3.19483225 4.11566723 -3.06640625 1.09765625 C-2.06640625 0.09765625 -2.06640625 0.09765625 0 0 Z " fill="#585A5D" transform="translate(690.06640625,485.90234375)"/>
<path d="M0 0 C0.66 0 1.32 0 2 0 C2 3.96 2 7.92 2 12 C0.02 12 -1.96 12 -4 12 C-6 10 -6 10 -6.25 7.5 C-6 5 -6 5 -4 3 C-2.68 3 -1.36 3 0 3 C0 2.01 0 1.02 0 0 Z " fill="#C5CABF" transform="translate(680,483)"/>
<path d="M0 0 C0.66 0 1.32 0 2 0 C2 3.96 2 7.92 2 12 C0.02 12 -1.96 12 -4 12 C-6 10 -6 10 -6.25 7.5 C-6 5 -6 5 -4 3 C-2.68 3 -1.36 3 0 3 C0 2.01 0 1.02 0 0 Z " fill="#C5CABF" transform="translate(667,253)"/>
<path d="M0 0 C1.4540625 0.0309375 1.4540625 0.0309375 2.9375 0.0625 C2.96437279 1.87492052 2.98383715 3.68745233 3 5.5 C3.01160156 6.50933594 3.02320313 7.51867187 3.03515625 8.55859375 C2.9375 11.0625 2.9375 11.0625 1.9375 12.0625 C0.27132885 12.10313832 -1.39638095 12.105221 -3.0625 12.0625 C-3.3925 11.4025 -3.7225 10.7425 -4.0625 10.0625 C-1.5875 10.5575 -1.5875 10.5575 0.9375 11.0625 C0.9375 10.4025 0.9375 9.7425 0.9375 9.0625 C-0.7125 8.7325 -2.3625 8.4025 -4.0625 8.0625 C-4.10491723 5.72955225 -4.10342937 3.39547433 -4.0625 1.0625 C-3.0625 0.0625 -3.0625 0.0625 0 0 Z " fill="#BCCBC8" transform="translate(653.0625,175.9375)"/>
<path d="M0 0 C0.66 0 1.32 0 2 0 C3.16063604 4.25566547 2.76173392 7.6835078 2 12 C-1 12 -4 12 -7 12 C-7.33 11.34 -7.66 10.68 -8 10 C-5.525 10.495 -5.525 10.495 -3 11 C-3 10.01 -3 9.02 -3 8 C-4.65 7.67 -6.3 7.34 -8 7 C-7.67 5.68 -7.34 4.36 -7 3 C-4.69 3.33 -2.38 3.66 0 4 C0 2.68 0 1.36 0 0 Z " fill="#9CA9AC" transform="translate(673,173)"/>
<path d="M0 0 C0.99 1.485 0.99 1.485 2 3 C2.99 3 3.98 3 5 3 C5.33 3 5.66 3 6 3 C6.825 2.814375 7.65 2.62875 8.5 2.4375 C9.325 2.293125 10.15 2.14875 11 2 C12 3 12 3 12.0625 6.0625 C12.041875 7.031875 12.02125 8.00125 12 9 C9.03 9 6.06 9 3 9 C2.67 8.34 2.34 7.68 2 7 C1.34 7.66 0.68 8.32 0 9 C0 6.03 0 3.06 0 0 Z " fill="#9F988D" transform="translate(484,445)"/>
<path d="M0 0 C-0.99 0 -1.98 0 -3 0 C-3 0.66 -3 1.32 -3 2 C-2.01 2.33 -1.02 2.66 0 3 C-0.33 3.99 -0.66 4.98 -1 6 C-5.33333333 6 -9.66666667 6 -14 6 C-14 4.02 -14 2.04 -14 0 C-12.68 0 -11.36 0 -10 0 C-10 0.66 -10 1.32 -10 2 C-9.01 2 -8.02 2 -7 2 C-6.67 1.34 -6.34 0.68 -6 0 C-3.50907189 -1.24546405 -2.58919267 -0.7767578 0 0 Z " fill="#734C19" transform="translate(637,608)"/>
<path d="M0 0 C1.98 0 3.96 0 6 0 C6.95024979 3.69541586 6.95024979 6.30458414 6 10 C4.02 10 2.04 10 0 10 C0 6.7 0 3.4 0 0 Z " fill="#D2CFC9" transform="translate(245,56)"/>
<path d="M0 0 C0.99 0 1.98 0 3 0 C4.32 2.31 5.64 4.62 7 7 C7.33 4.69 7.66 2.38 8 0 C8.66 0 9.32 0 10 0 C10 3.96 10 7.92 10 12 C9.01 12 8.02 12 7 12 C5.02 8.535 5.02 8.535 3 5 C2.67 7.31 2.34 9.62 2 12 C1.34 12 0.68 12 0 12 C0 8.04 0 4.08 0 0 Z " fill="#B7C2BB" transform="translate(593,253)"/>
<path d="M0 0 C0.99 0 1.98 0 3 0 C4.32 2.31 5.64 4.62 7 7 C7.33 4.69 7.66 2.38 8 0 C8.66 0 9.32 0 10 0 C10 3.96 10 7.92 10 12 C9.01 12 8.02 12 7 12 C5.02 8.535 5.02 8.535 3 5 C2.67 7.31 2.34 9.62 2 12 C1.34 12 0.68 12 0 12 C0 8.04 0 4.08 0 0 Z " fill="#B7C2BB" transform="translate(585,173)"/>
<path d="M0 0 C2.93453261 0.36681658 3.86437246 0.86437246 6 3 C6.99 3 7.98 3 9 3 C9 2.34 9 1.68 9 1 C8.01 0.67 7.02 0.34 6 0 C7.32 0 8.64 0 10 0 C10 2.31 10 4.62 10 7 C6.37 7 2.74 7 -1 7 C-1.33 5.35 -1.66 3.7 -2 2 C-1.34 1.34 -0.68 0.68 0 0 Z " fill="#795219" transform="translate(715,607)"/>
<path d="M0 0 C1.51400391 0.01740234 1.51400391 0.01740234 3.05859375 0.03515625 C4.07050781 0.04417969 5.08242188 0.05320313 6.125 0.0625 C7.29869141 0.07990234 7.29869141 0.07990234 8.49609375 0.09765625 C8.16609375 0.75765625 7.83609375 1.41765625 7.49609375 2.09765625 C6.83609375 2.09765625 6.17609375 2.09765625 5.49609375 2.09765625 C6.48609375 2.75765625 7.47609375 3.41765625 8.49609375 4.09765625 C8.49609375 5.08765625 8.49609375 6.07765625 8.49609375 7.09765625 C6.84609375 7.09765625 5.19609375 7.09765625 3.49609375 7.09765625 C3.16609375 6.10765625 2.83609375 5.11765625 2.49609375 4.09765625 C1.50609375 4.59265625 1.50609375 4.59265625 0.49609375 5.09765625 C0.82609375 5.75765625 1.15609375 6.41765625 1.49609375 7.09765625 C-0.15390625 6.76765625 -1.80390625 6.43765625 -3.50390625 6.09765625 C-3.54662725 4.4315372 -3.54454457 2.7638274 -3.50390625 1.09765625 C-2.50390625 0.09765625 -2.50390625 0.09765625 0 0 Z " fill="#A1A6A4" transform="translate(507.50390625,213.90234375)"/>
<path d="M0 0 C4.55555556 0.55555556 4.55555556 0.55555556 6 2 C6.1875 4.4375 6.1875 4.4375 6 7 C5.34 7.66 4.68 8.32 4 9 C-0.55555556 8.44444444 -0.55555556 8.44444444 -2 7 C-2.1875 4.5625 -2.1875 4.5625 -2 2 C-1.34 1.34 -0.68 0.68 0 0 Z " fill="#BBD0D3" transform="translate(667,486)"/>
<path d="M0 0 C0.66 0 1.32 0 2 0 C2 0.66 2 1.32 2 2 C2.9590625 2.1546875 2.9590625 2.1546875 3.9375 2.3125 C4.618125 2.539375 5.29875 2.76625 6 3 C6.33 3.99 6.66 4.98 7 6 C7.66 4.68 8.32 3.36 9 2 C9.66 2 10.32 2 11 2 C10.60304363 3.62992692 10.18167507 5.25392235 9.75 6.875 C9.40195312 8.23238281 9.40195312 8.23238281 9.046875 9.6171875 C8 12 8 12 5.890625 13.3203125 C5.26671875 13.54460937 4.6428125 13.76890625 4 14 C4.185625 13.113125 4.37125 12.22625 4.5625 11.3125 C4.98042484 8.14821189 4.80777742 6.05160358 4 3 C3.34 3 2.68 3 2 3 C2.33 5.64 2.66 8.28 3 11 C2.01 11 1.02 11 0 11 C-0.19491452 9.54263913 -0.38069358 8.08405407 -0.5625 6.625 C-0.66691406 5.81289063 -0.77132812 5.00078125 -0.87890625 4.1640625 C-1 2 -1 2 0 0 Z " fill="#C2C9BA" transform="translate(699,484)"/>
<path d="M0 0 C2.33294775 -0.04241723 4.66702567 -0.04092937 7 0 C8 1 8 1 8.125 3.5 C8 6 8 6 7 7 C5.00041636 7.04080783 2.99954746 7.04254356 1 7 C1 8.65 1 10.3 1 12 C0.67 12 0.34 12 0 12 C0 8.04 0 4.08 0 0 Z " fill="#EBF5EB" transform="translate(638,483)"/>
<path d="M0 0 C0.66 0 1.32 0 2 0 C2 1.65 2 3.3 2 5 C3.65 5 5.3 5 7 5 C7 3.35 7 1.7 7 0 C7.66 0 8.32 0 9 0 C9 3.96 9 7.92 9 12 C8.34 12 7.68 12 7 12 C7 10.35 7 8.7 7 7 C5.35 7 3.7 7 2 7 C2 8.65 2 10.3 2 12 C1.34 12 0.68 12 0 12 C0 8.04 0 4.08 0 0 Z " fill="#BCCAC0" transform="translate(638,253)"/>
<path d="M0 0 C0.804375 0.185625 1.60875 0.37125 2.4375 0.5625 C3.283125 0.706875 4.12875 0.85125 5 1 C5.33 0.67 5.66 0.34 6 0 C8.5 -0.125 8.5 -0.125 11 0 C12 1 12 1 12.0625 4.0625 C12.041875 5.031875 12.02125 6.00125 12 7 C11.34 7 10.68 7 10 7 C10 5.02 10 3.04 10 1 C9.01 1.495 9.01 1.495 8 2 C7.34444881 4.52733235 7.34444881 4.52733235 7 7 C4.36 7 1.72 7 -1 7 C-0.67 5.68 -0.34 4.36 0 3 C0.99 3 1.98 3 3 3 C3 2.34 3 1.68 3 1 C1.68 1.33 0.36 1.66 -1 2 C-0.67 1.34 -0.34 0.68 0 0 Z " fill="#B2B6AF" transform="translate(485,135)"/>
<path d="M0 0 C0.66 0 1.32 0 2 0 C2.33 0.99 2.66 1.98 3 3 C3.99 2.67 4.98 2.34 6 2 C6 1.34 6 0.68 6 0 C6.99 0.33 7.98 0.66 9 1 C8.67 1.33 8.34 1.66 8 2 C7.95907063 4.33297433 7.95758277 6.66705225 8 9 C7.236875 8.814375 6.47375 8.62875 5.6875 8.4375 C2.91032625 7.77180827 2.91032625 7.77180827 0 9 C0 6.03 0 3.06 0 0 Z " fill="#B4B7B0" transform="translate(461,133)"/>
<path d="M0 0 C0.66 0.33 1.32 0.66 2 1 C2 4.63 2 8.26 2 12 C1.01 11.67 0.02 11.34 -1 11 C-0.67 10.34 -0.34 9.68 0 9 C-1.98 9 -3.96 9 -6 9 C-6 7.68 -6 6.36 -6 5 C-5.01 5 -4.02 5 -3 5 C-3 4.34 -3 3.68 -3 3 C-3.99 3.33 -4.98 3.66 -6 4 C-6 3.34 -6 2.68 -6 2 C-4.35 2.33 -2.7 2.66 -1 3 C-0.67 2.01 -0.34 1.02 0 0 Z " fill="#A7B1B0" transform="translate(480,445)"/>
<path d="M0 0 C3 1 3 1 4.6875 4.0625 C5.120625 5.031875 5.55375 6.00125 6 7 C6.33 4.69 6.66 2.38 7 0 C7.66 0 8.32 0 9 0 C9 3.96 9 7.92 9 12 C4.47653527 9.73826764 3.94171334 8.46594067 2 4 C1.67 6.64 1.34 9.28 1 12 C0.67 12 0.34 12 0 12 C0 8.04 0 4.08 0 0 Z " fill="#CCD4C7" transform="translate(713,253)"/>
<path d="M0 0 C3 1 3 1 4.6875 4.0625 C5.120625 5.031875 5.55375 6.00125 6 7 C6.33 4.69 6.66 2.38 7 0 C7.66 0 8.32 0 9 0 C9 3.96 9 7.92 9 12 C4.47653527 9.73826764 3.94171334 8.46594067 2 4 C1.67 6.64 1.34 9.28 1 12 C0.67 12 0.34 12 0 12 C0 8.04 0 4.08 0 0 Z " fill="#CCD4C7" transform="translate(721,173)"/>
<path d="M0 0 C2.31 0 4.62 0 7 0 C8.125 3.75 8.125 3.75 7 6 C7.33 6.99 7.66 7.98 8 9 C7.34 9 6.68 9 6 9 C5.67 7.68 5.34 6.36 5 5 C4.01 5 3.02 5 2 5 C2 6.32 2 7.64 2 9 C1.34 9 0.68 9 0 9 C0 6.03 0 3.06 0 0 Z " fill="#9FA6A7" transform="translate(464,445)"/>
<path d="M0 0 C2.00720923 0.28674418 4.0085944 0.61866701 6 1 C6.33 3.64 6.66 6.28 7 9 C4.36 9 1.72 9 -1 9 C-1 7.35 -1 5.7 -1 4 C0.32 3.34 1.64 2.68 3 2 C1.68 1.67 0.36 1.34 -1 1 C-0.67 0.67 -0.34 0.34 0 0 Z " fill="#ADA8A0" transform="translate(672,335)"/>
<path d="M0 0 C2.5 0.125 2.5 0.125 3.5 1.125 C3.625 4.125 3.625 4.125 3.5 7.125 C2.5 8.125 2.5 8.125 0 8.25 C-2.5 8.125 -2.5 8.125 -3.5 7.125 C-3.625 4.125 -3.625 4.125 -3.5 1.125 C-2.5 0.125 -2.5 0.125 0 0 Z " fill="#282020" transform="translate(633.5,94.875)"/>
<path d="M0 0 C1.66611905 -0.042721 3.33382885 -0.04063832 5 0 C7.04698414 2.04698414 6.70045693 6.30411241 7 9 C4.36 9 1.72 9 -1 9 C-1 7.35 -1 5.7 -1 4 C0.65 3.67 2.3 3.34 4 3 C4 2.34 4 1.68 4 1 C2.35 1.33 0.7 1.66 -1 2 C-0.67 1.34 -0.34 0.68 0 0 Z " fill="#B0AEA6" transform="translate(725,256)"/>
<path d="M0 0 C1.66611905 -0.042721 3.33382885 -0.04063832 5 0 C7.04698414 2.04698414 6.70045693 6.30411241 7 9 C4.36 9 1.72 9 -1 9 C-1 7.35 -1 5.7 -1 4 C0.65 3.67 2.3 3.34 4 3 C4 2.34 4 1.68 4 1 C2.35 1.33 0.7 1.66 -1 2 C-0.67 1.34 -0.34 0.68 0 0 Z " fill="#B0AEA6" transform="translate(733,176)"/>
<path d="M0 0 C1.66611905 -0.042721 3.33382885 -0.04063832 5 0 C7.04698414 2.04698414 6.70045693 6.30411241 7 9 C4.36 9 1.72 9 -1 9 C-1 7.35 -1 5.7 -1 4 C0.65 3.67 2.3 3.34 4 3 C4 2.34 4 1.68 4 1 C2.35 1.33 0.7 1.66 -1 2 C-0.67 1.34 -0.34 0.68 0 0 Z " fill="#B0AEA6" transform="translate(690,96)"/>
<path d="M0 0 C0.721875 0.185625 1.44375 0.37125 2.1875 0.5625 C5.12826973 1.01995307 7.14103058 0.73516357 10 0 C9.01 0.495 9.01 0.495 8 1 C8 2.98 8 4.96 8 7 C5.03 7 2.06 7 -1 7 C-0.67 5.68 -0.34 4.36 0 3 C0.99 3 1.98 3 3 3 C3 2.34 3 1.68 3 1 C1.68 1.33 0.36 1.66 -1 2 C-0.67 1.34 -0.34 0.68 0 0 Z " fill="#B0B3AF" transform="translate(485,371)"/>
<path d="M0 0 C0.66 0 1.32 0 2 0 C2.33 0.99 2.66 1.98 3 3 C3.66 2.01 4.32 1.02 5 0 C5.66 0 6.32 0 7 0 C7.33 1.32 7.66 2.64 8 4 C8.99 2.68 9.98 1.36 11 0 C10.67 2.97 10.34 5.94 10 9 C9.01 9 8.02 9 7 9 C6.67 7.68 6.34 6.36 6 5 C5.34 6.32 4.68 7.64 4 9 C3.34 9 2.68 9 2 9 C1.34 6.03 0.68 3.06 0 0 Z " fill="#C1C8BA" transform="translate(640,96)"/>
<path d="M0 0 C3.33333333 0 6.66666667 0 10 0 C9.67 2.31 9.34 4.62 9 7 C8.4225 6.814375 7.845 6.62875 7.25 6.4375 C4.79307475 5.95976454 3.35602466 6.24270636 1 7 C0.67 4.69 0.34 2.38 0 0 Z " fill="#B47216" transform="translate(662,60)"/>
<path d="M0 0 C0.33 0.66 0.66 1.32 1 2 C2.32 2 3.64 2 5 2 C5.66 3.32 6.32 4.64 7 6 C7.66 4.68 8.32 3.36 9 2 C9.66 2.33 10.32 2.66 11 3 C9.68 6.3 8.36 9.6 7 13 C6.01 13 5.02 13 4 13 C4.185625 12.278125 4.37125 11.55625 4.5625 10.8125 C5.01995307 7.87173027 4.73516357 5.85896942 4 3 C3.01 3 2.02 3 1 3 C1 5.31 1 7.62 1 10 C1.66 10.33 2.32 10.66 3 11 C2.01 11 1.02 11 0 11 C-0.19491452 9.54263913 -0.38069358 8.08405407 -0.5625 6.625 C-0.66691406 5.81289063 -0.77132812 5.00078125 -0.87890625 4.1640625 C-1 2 -1 2 0 0 Z " fill="#C3CBBD" transform="translate(676,408)"/>
<path d="M0 0 C0.99 0 1.98 0 3 0 C3.66 1.32 4.32 2.64 5 4 C5.33 2.68 5.66 1.36 6 0 C6.66 0 7.32 0 8 0 C8 2.97 8 5.94 8 9 C7.01 9 6.02 9 5 9 C4.34 7.68 3.68 6.36 3 5 C2.67 6.32 2.34 7.64 2 9 C1.34 9 0.68 9 0 9 C0 6.03 0 3.06 0 0 Z " fill="#D28615" transform="translate(646,58)"/>
<path d="M0 0 C1.47906892 -0.02689216 2.95827483 -0.04634621 4.4375 -0.0625 C5.26121094 -0.07410156 6.08492187 -0.08570313 6.93359375 -0.09765625 C9 0 9 0 10 1 C10.04080783 2.99958364 10.04254356 5.00045254 10 7 C9.34 7 8.68 7 8 7 C8 5.35 8 3.7 8 2 C7.34 2 6.68 2 6 2 C6 3.65 6 5.3 6 7 C5.34 7 4.68 7 4 7 C4 5.35 4 3.7 4 2 C3.34 2 2.68 2 2 2 C2 3.65 2 5.3 2 7 C1.34 7 0.68 7 0 7 C0 4.69 0 2.38 0 0 Z " fill="#D27717" transform="translate(712,60)"/>
<path d="M0 0 C0.66 0 1.32 0 2 0 C2.33 1.65 2.66 3.3 3 5 C3.33 3.35 3.66 1.7 4 0 C4.99 0 5.98 0 7 0 C7.33 1.65 7.66 3.3 8 5 C8.66 3.35 9.32 1.7 10 0 C11.25541557 3.76624671 10.37061958 5.37188934 9 9 C8.34 9 7.68 9 7 9 C6.34 8.01 5.68 7.02 5 6 C4.67 6.99 4.34 7.98 4 9 C3.34 9 2.68 9 2 9 C1.34 6.03 0.68 3.06 0 0 Z " fill="#C2CEC0" transform="translate(613,256)"/>
<path d="M0 0 C0.66 0 1.32 0 2 0 C2 3.96 2 7.92 2 12 C1.34 12 0.68 12 0 12 C0 9.36 0 6.72 0 4 C-0.66 4 -1.32 4 -2 4 C-1.67 6.64 -1.34 9.28 -1 12 C-1.99 11.67 -2.98 11.34 -4 11 C-4.33 8.36 -4.66 5.72 -5 3 C-4.34 3 -3.68 3 -3 3 C-2.67 2.34 -2.34 1.68 -2 1 C-2 1.66 -2 2.32 -2 3 C-1.34 3 -0.68 3 0 3 C0 2.01 0 1.02 0 0 Z " fill="#A1BDC0" transform="translate(695,253)"/>
<path d="M0 0 C0.66 0 1.32 0 2 0 C2.33 1.65 2.66 3.3 3 5 C3.33 3.35 3.66 1.7 4 0 C4.99 0 5.98 0 7 0 C7.33 1.65 7.66 3.3 8 5 C8.66 3.35 9.32 1.7 10 0 C11.25541557 3.76624671 10.37061958 5.37188934 9 9 C8.34 9 7.68 9 7 9 C6.34 8.01 5.68 7.02 5 6 C4.67 6.99 4.34 7.98 4 9 C3.34 9 2.68 9 2 9 C1.34 6.03 0.68 3.06 0 0 Z " fill="#C2CEC0" transform="translate(605,176)"/>
<path d="M0 0 C0.66 0 1.32 0 2 0 C2 3.96 2 7.92 2 12 C1.34 12 0.68 12 0 12 C0 9.36 0 6.72 0 4 C-0.66 4 -1.32 4 -2 4 C-1.67 6.64 -1.34 9.28 -1 12 C-1.99 11.67 -2.98 11.34 -4 11 C-4.33 8.36 -4.66 5.72 -5 3 C-4.34 3 -3.68 3 -3 3 C-2.67 2.34 -2.34 1.68 -2 1 C-2 1.66 -2 2.32 -2 3 C-1.34 3 -0.68 3 0 3 C0 2.01 0 1.02 0 0 Z " fill="#A1BDC0" transform="translate(703,173)"/>
<path d="M0 0 C0.66 0 1.32 0 2 0 C2 3.3 2 6.6 2 10 C0.35 10 -1.3 10 -3 10 C-4 9 -4 9 -4.0625 6.4375 C-4.041875 5.633125 -4.02125 4.82875 -4 4 C-2.68 3.67 -1.36 3.34 0 3 C0 2.01 0 1.02 0 0 Z " fill="#835419" transform="translate(731,604)"/>
<path d="M0 0 C0.66 0 1.32 0 2 0 C2 3.3 2 6.6 2 10 C0.35 10 -1.3 10 -3 10 C-4 9 -4 9 -4.0625 6.4375 C-4.041875 5.633125 -4.02125 4.82875 -4 4 C-2.68 3.67 -1.36 3.34 0 3 C0 2.01 0 1.02 0 0 Z " fill="#835419" transform="translate(671,604)"/>
<path d="M0 0 C0 1.32 0 2.64 0 4 C-1.65 4 -3.3 4 -5 4 C-4.67 4.66 -4.34 5.32 -4 6 C-1.97536745 6.65213292 -1.97536745 6.65213292 0 7 C-1 8 -1 8 -3.5625 8.0625 C-4.366875 8.041875 -5.17125 8.02125 -6 8 C-7.35439668 5.29120665 -7.06501451 2.99066732 -7 0 C-4.3333581 -1.33332095 -2.83319697 -0.67102033 0 0 Z " fill="#AEB3B1" transform="translate(753,257)"/>
<path d="M0 0 C0 1.32 0 2.64 0 4 C-1.65 4 -3.3 4 -5 4 C-4.67 4.66 -4.34 5.32 -4 6 C-1.97536745 6.65213292 -1.97536745 6.65213292 0 7 C-1 8 -1 8 -3.5625 8.0625 C-4.366875 8.041875 -5.17125 8.02125 -6 8 C-7.35439668 5.29120665 -7.06501451 2.99066732 -7 0 C-4.3333581 -1.33332095 -2.83319697 -0.67102033 0 0 Z " fill="#AEB3B1" transform="translate(706,257)"/>
<path d="M0 0 C0 1.32 0 2.64 0 4 C-1.65 4 -3.3 4 -5 4 C-4.67 4.66 -4.34 5.32 -4 6 C-1.97536745 6.65213292 -1.97536745 6.65213292 0 7 C-1 8 -1 8 -3.5625 8.0625 C-4.366875 8.041875 -5.17125 8.02125 -6 8 C-7.35439668 5.29120665 -7.06501451 2.99066732 -7 0 C-4.3333581 -1.33332095 -2.83319697 -0.67102033 0 0 Z " fill="#AEB3B1" transform="translate(761,177)"/>
<path d="M0 0 C0 1.32 0 2.64 0 4 C-1.65 4 -3.3 4 -5 4 C-4.67 4.66 -4.34 5.32 -4 6 C-1.97536745 6.65213292 -1.97536745 6.65213292 0 7 C-1 8 -1 8 -3.5625 8.0625 C-4.366875 8.041875 -5.17125 8.02125 -6 8 C-7.35439668 5.29120665 -7.06501451 2.99066732 -7 0 C-4.3333581 -1.33332095 -2.83319697 -0.67102033 0 0 Z " fill="#AEB3B1" transform="translate(714,177)"/>
<path d="M0 0 C0 1.32 0 2.64 0 4 C-1.65 4 -3.3 4 -5 4 C-4.67 4.66 -4.34 5.32 -4 6 C-1.97536745 6.65213292 -1.97536745 6.65213292 0 7 C-1 8 -1 8 -3.5625 8.0625 C-4.366875 8.041875 -5.17125 8.02125 -6 8 C-7.35439668 5.29120665 -7.06501451 2.99066732 -7 0 C-4.3333581 -1.33332095 -2.83319697 -0.67102033 0 0 Z " fill="#AEB3B1" transform="translate(718,97)"/>
<path d="M0 0 C2.31 0 4.62 0 7 0 C7 2.31 7 4.62 7 7 C6.21625 6.814375 5.4325 6.62875 4.625 6.4375 C2.02910225 5.74037734 2.02910225 5.74037734 0 7 C0 4.69 0 2.38 0 0 Z " fill="#835519" transform="translate(675,607)"/>
<path d="M0 0 C0.66 0 1.32 0 2 0 C2 2.97 2 5.94 2 9 C0.33388095 9.042721 -1.33382885 9.04063832 -3 9 C-4 8 -4 8 -4.0625 5.4375 C-4.041875 4.633125 -4.02125 3.82875 -4 3 C-2.68 2.67 -1.36 2.34 0 2 C0 1.34 0 0.68 0 0 Z " fill="#9E9A91" transform="translate(501,520)"/>
<path d="M0 0 C0.66 0 1.32 0 2 0 C2 2.97 2 5.94 2 9 C0.33388095 9.042721 -1.33382885 9.04063832 -3 9 C-4 8 -4 8 -4.0625 5.4375 C-4.041875 4.633125 -4.02125 3.82875 -4 3 C-2.68 2.67 -1.36 2.34 0 2 C0 1.34 0 0.68 0 0 Z " fill="#9A9E99" transform="translate(549,212)"/>
<path d="M0 0 C0.66 0 1.32 0 2 0 C2 0.66 2 1.32 2 2 C3.32 2.33 4.64 2.66 6 3 C6.042721 4.66611905 6.04063832 6.33382885 6 8 C5 9 5 9 2.4375 9.0625 C1.633125 9.041875 0.82875 9.02125 0 9 C0 6.03 0 3.06 0 0 Z " fill="#DC8216" transform="translate(616,58)"/>
<path d="M0 0 C1.65 0 3.3 0 5 0 C4.34 2.97 3.68 5.94 3 9 C2.34 9 1.68 9 1 9 C1 8.01 1 7.02 1 6 C-0.98 6.66 -2.96 7.32 -5 8 C-5.33 7.01 -5.66 6.02 -6 5 C-4.35 5 -2.7 5 -1 5 C-0.67 3.35 -0.34 1.7 0 0 Z " fill="#423832" transform="translate(669,96)"/>
<path d="M0 0 C1.67542976 0.28604898 3.34385343 0.61781233 5 1 C5.33 2.32 5.66 3.64 6 5 C4.02 5 2.04 5 0 5 C0.33 5.66 0.66 6.32 1 7 C2.65 7 4.3 7 6 7 C5.67 7.66 5.34 8.32 5 9 C3.33388095 9.042721 1.66617115 9.04063832 0 9 C-1 8 -1 8 -1.125 4.5 C-1 1 -1 1 0 0 Z " fill="#AFB6B5" transform="translate(649,486)"/>
<path d="M0 0 C1.67542976 0.28604898 3.34385343 0.61781233 5 1 C5.33 2.32 5.66 3.64 6 5 C4.02 5 2.04 5 0 5 C0.33 5.66 0.66 6.32 1 7 C2.65 7 4.3 7 6 7 C5.67 7.66 5.34 8.32 5 9 C3.33388095 9.042721 1.66617115 9.04063832 0 9 C-1 8 -1 8 -1.125 4.5 C-1 1 -1 1 0 0 Z " fill="#AFB6B5" transform="translate(685,335)"/>
<path d="M0 0 C1.67542976 0.28604898 3.34385343 0.61781233 5 1 C5.33 2.32 5.66 3.64 6 5 C4.02 5 2.04 5 0 5 C0.33 5.66 0.66 6.32 1 7 C2.65 7 4.3 7 6 7 C5.67 7.66 5.34 8.32 5 9 C3.33388095 9.042721 1.66617115 9.04063832 0 9 C-1 8 -1 8 -1.125 4.5 C-1 1 -1 1 0 0 Z " fill="#AFB6B5" transform="translate(606,256)"/>
<path d="M0 0 C1.67542976 0.28604898 3.34385343 0.61781233 5 1 C5.33 2.32 5.66 3.64 6 5 C4.02 5 2.04 5 0 5 C0.33 5.66 0.66 6.32 1 7 C2.65 7 4.3 7 6 7 C5.67 7.66 5.34 8.32 5 9 C3.33388095 9.042721 1.66617115 9.04063832 0 9 C-1 8 -1 8 -1.125 4.5 C-1 1 -1 1 0 0 Z " fill="#AFB6B5" transform="translate(598,176)"/>
<path d="M0 0 C0.33 0.66 0.66 1.32 1 2 C2.32 2 3.64 2 5 2 C6.125 6.75 6.125 6.75 5 9 C3.35 9 1.7 9 0 9 C0 6.03 0 3.06 0 0 Z " fill="#F9D290" transform="translate(672,566)"/>
<path d="M0 0 C1.65 0 3.3 0 5 0 C5.33 0.66 5.66 1.32 6 2 C4.68 2.33 3.36 2.66 2 3 C3.32 3.33 4.64 3.66 6 4 C5.67 5.65 5.34 7.3 5 9 C3.35 9 1.7 9 0 9 C-0.33 8.01 -0.66 7.02 -1 6 C0.65 6 2.3 6 4 6 C1.525 5.01 1.525 5.01 -1 4 C-0.67 2.68 -0.34 1.36 0 0 Z " fill="#C78215" transform="translate(600,58)"/>
<path d="M0 0 C1.99954746 -0.04254356 4.00041636 -0.04080783 6 0 C7 1 7 1 7.09765625 2.84765625 C7.06510417 4.8984375 7.03255208 6.94921875 7 9 C6.34 9 5.68 9 5 9 C5 6.36 5 3.72 5 1 C4.01 1.495 4.01 1.495 3 2 C2.59270772 4.32156597 2.25561323 6.6568787 2 9 C1.34 9 0.68 9 0 9 C0 6.03 0 3.06 0 0 Z " fill="#C8C5AD" transform="translate(733,256)"/>
<path d="M0 0 C1.99954746 -0.04254356 4.00041636 -0.04080783 6 0 C7 1 7 1 7.09765625 2.84765625 C7.06510417 4.8984375 7.03255208 6.94921875 7 9 C6.34 9 5.68 9 5 9 C5 6.36 5 3.72 5 1 C4.01 1.495 4.01 1.495 3 2 C2.59270772 4.32156597 2.25561323 6.6568787 2 9 C1.34 9 0.68 9 0 9 C0 6.03 0 3.06 0 0 Z " fill="#BEC6BB" transform="translate(653,256)"/>
<path d="M0 0 C1.99954746 -0.04254356 4.00041636 -0.04080783 6 0 C7 1 7 1 7.09765625 2.84765625 C7.06510417 4.8984375 7.03255208 6.94921875 7 9 C6.34 9 5.68 9 5 9 C5 6.36 5 3.72 5 1 C4.01 1.495 4.01 1.495 3 2 C2.59270772 4.32156597 2.25561323 6.6568787 2 9 C1.34 9 0.68 9 0 9 C0 6.03 0 3.06 0 0 Z " fill="#C8C5AD" transform="translate(741,176)"/>
<path d="M0 0 C1.99954746 -0.04254356 4.00041636 -0.04080783 6 0 C7 1 7 1 7.09765625 2.84765625 C7.06510417 4.8984375 7.03255208 6.94921875 7 9 C6.34 9 5.68 9 5 9 C5 6.36 5 3.72 5 1 C4.01 1.495 4.01 1.495 3 2 C2.59270772 4.32156597 2.25561323 6.6568787 2 9 C1.34 9 0.68 9 0 9 C0 6.03 0 3.06 0 0 Z " fill="#BEC6BB" transform="translate(680,96)"/>
<path d="M0 0 C1.67542976 0.28604898 3.34385343 0.61781233 5 1 C5 2.65 5 4.3 5 6 C3.34385343 6.38218767 1.67542976 6.71395102 0 7 C-1 6 -1 6 -1.125 3.5 C-1 1 -1 1 0 0 Z " fill="#7B5419" transform="translate(642,607)"/>
<path d="M0 0 C3 0 3 0 5 1 C5.99 0.67 6.98 0.34 8 0 C8 2.31 8 4.62 8 7 C3.25 6.125 3.25 6.125 1 5 C0.375 2.4375 0.375 2.4375 0 0 Z " fill="#895619" transform="translate(751,607)"/>
<path d="M0 0 C1.67542976 0.28604898 3.34385343 0.61781233 5 1 C5 2.65 5 4.3 5 6 C3.34385343 6.38218767 1.67542976 6.71395102 0 7 C-1 6 -1 6 -1.125 3.5 C-1 1 -1 1 0 0 Z " fill="#96948C" transform="translate(522,214)"/>
<path d="M0 0 C1.67542976 0.28604898 3.34385343 0.61781233 5 1 C5 2.65 5 4.3 5 6 C3.34385343 6.38218767 1.67542976 6.71395102 0 7 C-1 6 -1 6 -1.125 3.5 C-1 1 -1 1 0 0 Z " fill="#A96F16" transform="translate(739,60)"/>
<path d="M0 0 C1.67542976 0.28604898 3.34385343 0.61781233 5 1 C5 2.65 5 4.3 5 6 C3.34385343 6.38218767 1.67542976 6.71395102 0 7 C-1 6 -1 6 -1.125 3.5 C-1 1 -1 1 0 0 Z " fill="#A96F16" transform="translate(700,60)"/>
<path d="M0 0 C1.65 0.33 3.3 0.66 5 1 C5 3.31 5 5.62 5 8 C3.02 8 1.04 8 -1 8 C-0.625 5.5625 -0.625 5.5625 0 3 C0.66 2.67 1.32 2.34 2 2 C1.34 1.34 0.68 0.68 0 0 Z " fill="#CBC7C0" transform="translate(255,58)"/>
<path d="M0 0 C1.4540625 0.0309375 1.4540625 0.0309375 2.9375 0.0625 C2.9375 1.0525 2.9375 2.0425 2.9375 3.0625 C1.2875 2.7325 -0.3625 2.4025 -2.0625 2.0625 C-1.7325 3.7125 -1.4025 5.3625 -1.0625 7.0625 C0.2575 6.7325 1.5775 6.4025 2.9375 6.0625 C2.6075 7.0525 2.2775 8.0425 1.9375 9.0625 C0.2875 9.0625 -1.3625 9.0625 -3.0625 9.0625 C-4.42873674 6.33002652 -4.190926 4.08051098 -4.0625 1.0625 C-3.0625 0.0625 -3.0625 0.0625 0 0 Z " fill="#B3B3A9" transform="translate(691.0625,485.9375)"/>
<path d="M0 0 C0.99 0 1.98 0 3 0 C4.81502739 3.73682109 5.33059914 6.00820257 4 10 C3.01 10.495 3.01 10.495 2 11 C2 9.68 2 8.36 2 7 C1.34 7 0.68 7 0 7 C0 4.69 0 2.38 0 0 Z " fill="#3C3740" transform="translate(677,411)"/>
<path d="M0 0 C1.65 0.33 3.3 0.66 5 1 C5.33 2.98 5.66 4.96 6 7 C3.69 7 1.38 7 -1 7 C-0.67 5.68 -0.34 4.36 0 3 C0.99 3 1.98 3 3 3 C3 2.34 3 1.68 3 1 C1.68 1.33 0.36 1.66 -1 2 C-0.67 1.34 -0.34 0.68 0 0 Z " fill="#B2AEA3" transform="translate(505,522)"/>
<path d="M0 0 C1.65 0.33 3.3 0.66 5 1 C5.33 2.98 5.66 4.96 6 7 C3.69 7 1.38 7 -1 7 C-0.67 5.68 -0.34 4.36 0 3 C0.99 3 1.98 3 3 3 C3 2.34 3 1.68 3 1 C1.68 1.33 0.36 1.66 -1 2 C-0.67 1.34 -0.34 0.68 0 0 Z " fill="#B0B2AD" transform="translate(556,214)"/>
<path d="M0 0 C2.0625 0.4375 2.0625 0.4375 4 1 C4.33 2.98 4.66 4.96 5 7 C3.02 7 1.04 7 -1 7 C-1.04254356 5.00045254 -1.04080783 2.99958364 -1 1 C-0.67 0.67 -0.34 0.34 0 0 Z " fill="#9EA4A2" transform="translate(538,135)"/>
<path d="M0 0 C1.65 0.33 3.3 0.66 5 1 C5.33 2.98 5.66 4.96 6 7 C3.69 7 1.38 7 -1 7 C-0.67 5.68 -0.34 4.36 0 3 C0.99 3 1.98 3 3 3 C3 2.34 3 1.68 3 1 C1.68 1.33 0.36 1.66 -1 2 C-0.67 1.34 -0.34 0.68 0 0 Z " fill="#B0B2AD" transform="translate(516,135)"/>
<path d="M0 0 C1.67542976 0.28604898 3.34385343 0.61781233 5 1 C5 1.99 5 2.98 5 4 C4.01 4.495 4.01 4.495 3 5 C3.66 5 4.32 5 5 5 C5 5.66 5 6.32 5 7 C3.33388095 7.042721 1.66617115 7.04063832 0 7 C-1 6 -1 6 -1.125 3.5 C-1 1 -1 1 0 0 Z " fill="#B87A15" transform="translate(656,60)"/>
<path d="M0 0 C0.66 0 1.32 0 2 0 C2 0.66 2 1.32 2 2 C3.32 2.33 4.64 2.66 6 3 C6 4.98 6 6.96 6 9 C5.34 9 4.68 9 4 9 C4 7.02 4 5.04 4 3 C3.34 3 2.68 3 2 3 C2 4.98 2 6.96 2 9 C1.34 9 0.68 9 0 9 C0 6.03 0 3.06 0 0 Z " fill="#B3B5A6" transform="translate(472,520)"/>
<path d="M0 0 C1.4540625 0.0309375 1.4540625 0.0309375 2.9375 0.0625 C2.1875 3 2.1875 3 0.9375 6.0625 C-1.125 7 -1.125 7 -3.0625 7.0625 C-4.0625 6.0625 -4.0625 6.0625 -4.1875 3.5625 C-4.00295237 -0.12845252 -3.76342282 0.07680455 0 0 Z " fill="#393639" transform="translate(470.0625,369.9375)"/>
<path d="M0 0 C0.66 0 1.32 0 2 0 C2 0.66 2 1.32 2 2 C3.32 2.33 4.64 2.66 6 3 C6 4.98 6 6.96 6 9 C5.34 9 4.68 9 4 9 C4 7.02 4 5.04 4 3 C3.34 3 2.68 3 2 3 C2 4.98 2 6.96 2 9 C1.34 9 0.68 9 0 9 C0 6.03 0 3.06 0 0 Z " fill="#B3B5A6" transform="translate(469,212)"/>
<path d="M0 0 C1.67542976 0.28604898 3.34385343 0.61781233 5 1 C5 1.99 5 2.98 5 4 C3.68 4 2.36 4 1 4 C1 4.66 1 5.32 1 6 C2.32 5.67 3.64 5.34 5 5 C5 5.66 5 6.32 5 7 C3.33388095 7.042721 1.66617115 7.04063832 0 7 C-1 6 -1 6 -1.125 3.5 C-1 1 -1 1 0 0 Z " fill="#ACB0AC" transform="translate(477,214)"/>
<path d="M0 0 C0.66 0 1.32 0 2 0 C2 0.66 2 1.32 2 2 C3.32 2.33 4.64 2.66 6 3 C6 4.98 6 6.96 6 9 C5.34 9 4.68 9 4 9 C4 7.02 4 5.04 4 3 C3.34 3 2.68 3 2 3 C2 4.98 2 6.96 2 9 C1.34 9 0.68 9 0 9 C0 6.03 0 3.06 0 0 Z " fill="#B3B5A6" transform="translate(477,133)"/>
<path d="M0 0 C0.66 0 1.32 0 2 0 C2 0.66 2 1.32 2 2 C3.32 2.33 4.64 2.66 6 3 C6 4.98 6 6.96 6 9 C5.34 9 4.68 9 4 9 C4 7.02 4 5.04 4 3 C3.34 3 2.68 3 2 3 C2 4.98 2 6.96 2 9 C1.34 9 0.68 9 0 9 C0 6.03 0 3.06 0 0 Z " fill="#A9B5B5" transform="translate(508,133)"/>
<path d="M0 0 C1.65 0 3.3 0 5 0 C4.67 0.66 4.34 1.32 4 2 C3.01 1.67 2.02 1.34 1 1 C2.25541557 3.51083114 3.50063488 3.87125446 6 5 C5.67 6.32 5.34 7.64 5 9 C3.35 9 1.7 9 0 9 C-0.33 8.34 -0.66 7.68 -1 7 C1.475 7.495 1.475 7.495 4 8 C2.74458443 5.48916886 1.49936512 5.12874554 -1 4 C-0.67 2.68 -0.34 1.36 0 0 Z " fill="#CBCCC2" transform="translate(626,256)"/>
<path d="M0 0 C1.65 0 3.3 0 5 0 C4.67 0.66 4.34 1.32 4 2 C3.01 1.67 2.02 1.34 1 1 C2.25541557 3.51083114 3.50063488 3.87125446 6 5 C5.67 6.32 5.34 7.64 5 9 C3.35 9 1.7 9 0 9 C-0.33 8.34 -0.66 7.68 -1 7 C1.475 7.495 1.475 7.495 4 8 C2.74458443 5.48916886 1.49936512 5.12874554 -1 4 C-0.67 2.68 -0.34 1.36 0 0 Z " fill="#CBCCC2" transform="translate(618,176)"/>
<path d="M0 0 C1.65 0.33 3.3 0.66 5 1 C5.33 2.98 5.66 4.96 6 7 C4.02 7 2.04 7 0 7 C0 5.68 0 4.36 0 3 C0.99 3 1.98 3 3 3 C3 2.34 3 1.68 3 1 C2.01 1.33 1.02 1.66 0 2 C0 1.34 0 0.68 0 0 Z " fill="#AFB8B5" transform="translate(496,371)"/>
<path d="M0 0 C1.66611905 -0.042721 3.33382885 -0.04063832 5 0 C6 1 6 1 6.0625 4.0625 C6.041875 5.031875 6.02125 6.00125 6 7 C5.34 7 4.68 7 4 7 C4 5.35 4 3.7 4 2 C3.34 2 2.68 2 2 2 C2 3.65 2 5.3 2 7 C1.34 7 0.68 7 0 7 C0 4.69 0 2.38 0 0 Z " fill="#D38016" transform="translate(746,60)"/>
<path d="M0 0 C1.66611905 -0.042721 3.33382885 -0.04063832 5 0 C6 1 6 1 6.0625 4.0625 C6.041875 5.031875 6.02125 6.00125 6 7 C5.34 7 4.68 7 4 7 C4 5.35 4 3.7 4 2 C3.34 2 2.68 2 2 2 C2 3.65 2 5.3 2 7 C1.34 7 0.68 7 0 7 C0 4.69 0 2.38 0 0 Z " fill="#D38016" transform="translate(687,60)"/>
<path d="M0 0 C1.65 0 3.3 0 5 0 C6.33332095 2.6666419 5.67102033 4.16680303 5 7 C3.35 7 1.7 7 0 7 C0 4.69 0 2.38 0 0 Z " fill="#BF7816" transform="translate(624,60)"/>
<path d="M0 0 C0.66 0 1.32 0 2 0 C2 1.65 2 3.3 2 5 C2.66 5 3.32 5 4 5 C4 3.35 4 1.7 4 0 C4.66 0 5.32 0 6 0 C6 2.31 6 4.62 6 7 C4.33388095 7.042721 2.66617115 7.04063832 1 7 C0 6 0 6 -0.0625 2.9375 C-0.041875 1.968125 -0.02125 0.99875 0 0 Z " fill="#CC8415" transform="translate(608,60)"/>
<path d="M0 0 C0.66 0 1.32 0 2 0 C2 0.99 2 1.98 2 3 C3.32 3.33 4.64 3.66 6 4 C6 5.98 6 7.96 6 10 C5.67 10 5.34 10 5 10 C4.87625 9.195625 4.7525 8.39125 4.625 7.5625 C4.41875 6.716875 4.2125 5.87125 4 5 C3.34 4.67 2.68 4.34 2 4 C2 5.98 2 7.96 2 10 C1.34 10 0.68 10 0 10 C0 6.7 0 3.4 0 0 Z " fill="#A46418" transform="translate(589,604)"/>
<path d="M0 0 C0.66 0 1.32 0 2 0 C3.81502739 3.73682109 4.33059914 6.00820257 3 10 C2.01 10.495 2.01 10.495 1 11 C-0.17571451 7.32589215 -0.07366746 3.83070817 0 0 Z " fill="#252A3B" transform="translate(701,487)"/>
<path d="M0 0 C1.32 0 2.64 0 4 0 C4 0.66 4 1.32 4 2 C4.99 2.33 5.98 2.66 7 3 C7 4.98 7 6.96 7 9 C6.67 7.68 6.34 6.36 6 5 C3.69 4.34 1.38 3.68 -1 3 C-0.67 2.01 -0.34 1.02 0 0 Z " fill="#4C3C30" transform="translate(658,333)"/>
<path d="M0 0 C0.33 0 0.66 0 1 0 C1.33 1.98 1.66 3.96 2 6 C3.32 5.34 4.64 4.68 6 4 C5.443125 4.86625 5.443125 4.86625 4.875 5.75 C3.70833333 8 3.70833333 8 4.875 10.25 C5.24625 10.8275 5.6175 11.405 6 12 C4.68 11.34 3.36 10.68 2 10 C1.34 10.66 0.68 11.32 0 12 C0 8.04 0 4.08 0 0 Z " fill="#E8E9DB" transform="translate(269,54)"/>
<path d="M0 0 C0.66 0.33 1.32 0.66 2 1 C2 3.64 2 6.28 2 9 C0.68 9 -0.64 9 -2 9 C-2 7.02 -2 5.04 -2 3 C-1.34 3 -0.68 3 0 3 C0 2.01 0 1.02 0 0 Z " fill="#F8D188" transform="translate(689,566)"/>
<path d="M0 0 C0.66 0.33 1.32 0.66 2 1 C2 3.64 2 6.28 2 9 C0.35 9 -1.3 9 -3 9 C-3.33 6.69 -3.66 4.38 -4 2 C-3.01 2 -2.02 2 -1 2 C-1.33 3.98 -1.66 5.96 -2 8 C-1.34 8 -0.68 8 0 8 C0 5.36 0 2.72 0 0 Z " fill="#A9BEBA" transform="translate(490,212)"/>
<path d="M0 0 C1.32 0 2.64 0 4 0 C4.33 2.31 4.66 4.62 5 7 C3.02 7 1.04 7 -1 7 C-1 5.68 -1 4.36 -1 3 C-0.34 2.67 0.32 2.34 1 2 C0.34 1.67 -0.32 1.34 -1 1 C-0.67 0.67 -0.34 0.34 0 0 Z " fill="#C88315" transform="translate(724,60)"/>
<path d="M0 0 C1.65 0 3.3 0 5 0 C5.5625 1.9375 5.5625 1.9375 6 4 C5 5 5 5 2.4375 5.0625 C1.2309375 5.0315625 1.2309375 5.0315625 0 5 C0 3.35 0 1.7 0 0 Z " fill="#484444" transform="translate(639,484)"/>
<path d="M0 0 C2.125 0.375 2.125 0.375 4 1 C4 1.99 4 2.98 4 4 C2.68 4 1.36 4 0 4 C0 4.66 0 5.32 0 6 C0.99 6.33 1.98 6.66 3 7 C1.68 7 0.36 7 -1 7 C-1.625 4.625 -1.625 4.625 -2 2 C-1.34 1.34 -0.68 0.68 0 0 Z " fill="#A16817" transform="translate(715,607)"/>
<path d="M0 0 C2.125 0.375 2.125 0.375 4 1 C4 1.99 4 2.98 4 4 C2.68 4 1.36 4 0 4 C0 4.66 0 5.32 0 6 C0.99 6.33 1.98 6.66 3 7 C1.68 7 0.36 7 -1 7 C-1.625 4.625 -1.625 4.625 -2 2 C-1.34 1.34 -0.68 0.68 0 0 Z " fill="#A16817" transform="translate(598,607)"/>
<path d="M0 0 C2.125 0.375 2.125 0.375 4 1 C3.01 1.495 3.01 1.495 2 2 C2 2.99 2 3.98 2 5 C2.66 5.33 3.32 5.66 4 6 C3 7 3 7 0.4375 7.0625 C-0.7690625 7.0315625 -0.7690625 7.0315625 -2 7 C-2.125 4.625 -2.125 4.625 -2 2 C-1.34 1.34 -0.68 0.68 0 0 Z " fill="#9EA3A2" transform="translate(503,135)"/>
<path d="M0 0 C0.99 0.33 1.98 0.66 3 1 C2.67 1.33 2.34 1.66 2 2 C1.95907063 4.33297433 1.95758277 6.66705225 2 9 C0.68 8.34 -0.64 7.68 -2 7 C-1.42415568 4.61435923 -0.77772405 2.33317216 0 0 Z " fill="#6D797D" transform="translate(467,133)"/>
<path d="M0 0 C1.32 0 2.64 0 4 0 C4 0.66 4 1.32 4 2 C4.99 2 5.98 2 7 2 C7.33 1.34 7.66 0.68 8 0 C8 0.99 8 1.98 8 3 C6.68 3 5.36 3 4 3 C3.67 3.66 3.34 4.32 3 5 C2.01 5.33 1.02 5.66 0 6 C0 4.02 0 2.04 0 0 Z " fill="#A56718" transform="translate(623,608)"/>
<path d="M0 0 C0.99 0 1.98 0 3 0 C3 1.98 3 3.96 3 6 C1.68 6 0.36 6 -1 6 C-1.042721 4.33388095 -1.04063832 2.66617115 -1 1 C-0.67 0.67 -0.34 0.34 0 0 Z " fill="#3D2F30" transform="translate(668,487)"/>
<path d="M0 0 C0.99 0.33 1.98 0.66 3 1 C3 2.65 3 4.3 3 6 C1.68 6 0.36 6 -1 6 C-1.042721 4.33388095 -1.04063832 2.66617115 -1 1 C-0.67 0.67 -0.34 0.34 0 0 Z " fill="#392E39" transform="translate(677,487)"/>
<path d="M0 0 C0.99 0.33 1.98 0.66 3 1 C3 2.65 3 4.3 3 6 C1.68 6 0.36 6 -1 6 C-1.042721 4.33388095 -1.04063832 2.66617115 -1 1 C-0.67 0.67 -0.34 0.34 0 0 Z " fill="#392E39" transform="translate(664,257)"/>
<path d="M0 0 C0.33 0.66 0.66 1.32 1 2 C1.99 2 2.98 2 4 2 C4.33 1.34 4.66 0.68 5 0 C5 1.98 5 3.96 5 6 C3.35 5.67 1.7 5.34 0 5 C0 3.35 0 1.7 0 0 Z " fill="#965E19" transform="translate(744,608)"/>
<path d="M0 0 C0.2475 0.61875 0.495 1.2375 0.75 1.875 C2.20628639 4.35068687 3.37812506 4.95125002 6 6 C6 6.66 6 7.32 6 8 C4.02 8 2.04 8 0 8 C-0.79953138 4.71303767 -1.09658936 3.28976808 0 0 Z " fill="#3F353C" transform="translate(624,256)"/>
<path d="M0 0 C0.2475 0.61875 0.495 1.2375 0.75 1.875 C2.20628639 4.35068687 3.37812506 4.95125002 6 6 C6 6.66 6 7.32 6 8 C4.02 8 2.04 8 0 8 C-0.79953138 4.71303767 -1.09658936 3.28976808 0 0 Z " fill="#3F353C" transform="translate(616,176)"/>
<path d="M0 0 C1.1446875 0.2784375 1.1446875 0.2784375 2.3125 0.5625 C5.08967375 1.22819173 5.08967375 1.22819173 8 0 C7.34 1.32 6.68 2.64 6 4 C4.68 4 3.36 4 2 4 C1.34 2.68 0.68 1.36 0 0 Z " fill="#EDEDED" transform="translate(887,522)"/>
<path d="M0 0 C1.1446875 0.2784375 1.1446875 0.2784375 2.3125 0.5625 C5.08967375 1.22819173 5.08967375 1.22819173 8 0 C7.34 1.32 6.68 2.64 6 4 C4.68 4 3.36 4 2 4 C1.34 2.68 0.68 1.36 0 0 Z " fill="#EDEDED" transform="translate(887,447)"/>
<path d="M0 0 C1.1446875 0.2784375 1.1446875 0.2784375 2.3125 0.5625 C5.08967375 1.22819173 5.08967375 1.22819173 8 0 C7.34 1.32 6.68 2.64 6 4 C4.68 4 3.36 4 2 4 C1.34 2.68 0.68 1.36 0 0 Z " fill="#EDEDED" transform="translate(887,371)"/>
<path d="M0 0 C2.67927341 4.01891012 2.15601248 6.24161923 2 11 C1.01 10.67 0.02 10.34 -1 10 C-1.33 7.36 -1.66 4.72 -2 2 C-1.34 2 -0.68 2 0 2 C0 1.34 0 0.68 0 0 Z " fill="#BCD0D2" transform="translate(667,333)"/>
<path d="M0 0 C2.67927341 4.01891012 2.15601248 6.24161923 2 11 C1.01 10.67 0.02 10.34 -1 10 C-1.33 7.36 -1.66 4.72 -2 2 C-1.34 2 -0.68 2 0 2 C0 1.34 0 0.68 0 0 Z " fill="#BCD0D2" transform="translate(692,254)"/>
<path d="M0 0 C2.67927341 4.01891012 2.15601248 6.24161923 2 11 C1.01 10.67 0.02 10.34 -1 10 C-1.33 7.36 -1.66 4.72 -2 2 C-1.34 2 -0.68 2 0 2 C0 1.34 0 0.68 0 0 Z " fill="#BCD0D2" transform="translate(700,174)"/>
<path d="M0 0 C1.32 0.33 2.64 0.66 4 1 C3.67 1.33 3.34 1.66 3 2 C2.63239269 4.32817964 2.29758419 6.6618385 2 9 C1.34 9 0.68 9 0 9 C0 6.03 0 3.06 0 0 Z " fill="#C6C8B6" transform="translate(657,486)"/>
<path d="M0 0 C0.99 0.33 1.98 0.66 3 1 C2.67 3.64 2.34 6.28 2 9 C1.34 9 0.68 9 0 9 C-1.125 2.25 -1.125 2.25 0 0 Z " fill="#B2B7B3" transform="translate(528,212)"/>
<path d="M0 0 C1.32 0.33 2.64 0.66 4 1 C3.67 1.33 3.34 1.66 3 2 C2.63239269 4.32817964 2.29758419 6.6618385 2 9 C1.34 9 0.68 9 0 9 C0 6.03 0 3.06 0 0 Z " fill="#B5C6C9" transform="translate(670,96)"/>
<path d="M0 0 C2.475 0.495 2.475 0.495 5 1 C5 2.32 5 3.64 5 5 C3.35 4.67 1.7 4.34 0 4 C0 2.68 0 1.36 0 0 Z " fill="#86888D" transform="translate(246,61)"/>
<path d="M0 0 C0.99 0.33 1.98 0.66 3 1 C2.67 3.64 2.34 6.28 2 9 C1.34 9 0.68 9 0 9 C-1.125 2.25 -1.125 2.25 0 0 Z " fill="#D78D14" transform="translate(695,58)"/>
<path d="M0 0 C0 1.65 0 3.3 0 5 C-0.99 5.495 -0.99 5.495 -2 6 C-2 4.68 -2 3.36 -2 2 C-3.65 1.67 -5.3 1.34 -7 1 C-7 0.67 -7 0.34 -7 0 C-2.25 -1.125 -2.25 -1.125 0 0 Z " fill="#442D1C" transform="translate(608,60)"/>
<path d="M0 0 C1.98 0 3.96 0 6 0 C6 2.31 6 4.62 6 7 C5.34 6.01 4.68 5.02 4 4 C1.94996045 2.80767387 1.94996045 2.80767387 0 2 C0 1.34 0 0.68 0 0 Z " fill="#F5A81E" transform="translate(658,567)"/>
<path d="M0 0 C0 2.31 0 4.62 0 7 C-1.32 6.67 -2.64 6.34 -4 6 C-4 4.35 -4 2.7 -4 1 C-2 0 -2 0 0 0 Z " fill="#3F3636" transform="translate(508,135)"/>
<path d="M0 0 C0.66 0 1.32 0 2 0 C2 2.97 2 5.94 2 9 C1.01 8.67 0.02 8.34 -1 8 C-0.67 5.36 -0.34 2.72 0 0 Z " fill="#4B5A70" transform="translate(651,96)"/>
<path d="M0 0 C1.32 0.66 2.64 1.32 4 2 C3.01 2.66 2.02 3.32 1 4 C0.01 5.485 0.01 5.485 -1 7 C-1.66 5.35 -2.32 3.7 -3 2 C-2.01 1.34 -1.02 0.68 0 0 Z " fill="#48556E" transform="translate(254,58)"/>
<path d="M0 0 C0.99 0.33 1.98 0.66 3 1 C3 2.65 3 4.3 3 6 C2.01 6.33 1.02 6.66 0 7 C0 4.69 0 2.38 0 0 Z " fill="#30292C" transform="translate(651,177)"/>
<path d="M0 0 C0.99 0 1.98 0 3 0 C3 0.66 3 1.32 3 2 C2.34 2 1.68 2 1 2 C1 5.3 1 8.6 1 12 C0.67 12 0.34 12 0 12 C-0.19401633 10.18818595 -0.38004375 8.37551468 -0.5625 6.5625 C-0.66691406 5.55316406 -0.77132812 4.54382813 -0.87890625 3.50390625 C-0.91886719 2.67761719 -0.95882812 1.85132813 -1 1 C-0.67 0.67 -0.34 0.34 0 0 Z " fill="#3B527A" transform="translate(683,483)"/>
<path d="M0 0 C0.99 0 1.98 0 3 0 C3 0.66 3 1.32 3 2 C2.34 2 1.68 2 1 2 C1 5.3 1 8.6 1 12 C0.67 12 0.34 12 0 12 C-0.19401633 10.18818595 -0.38004375 8.37551468 -0.5625 6.5625 C-0.66691406 5.55316406 -0.77132812 4.54382813 -0.87890625 3.50390625 C-0.91886719 2.67761719 -0.95882812 1.85132813 -1 1 C-0.67 0.67 -0.34 0.34 0 0 Z " fill="#3B527A" transform="translate(670,253)"/>
<path d="M0 0 C0.66 0.33 1.32 0.66 2 1 C2 2.98 2 4.96 2 7 C1.01 6.67 0.02 6.34 -1 6 C-1.042721 4.33388095 -1.04063832 2.66617115 -1 1 C-0.67 0.67 -0.34 0.34 0 0 Z " fill="#6C4A19" transform="translate(729,60)"/>
<path d="M0 0 C1.485 0.99 1.485 0.99 3 2 C3.1875 5.125 3.1875 5.125 3 8 C2.01 8 1.02 8 0 8 C-0.38063221 5.6739143 -0.71269945 3.33944736 -1 1 C-0.67 0.67 -0.34 0.34 0 0 Z " fill="#D97E16" transform="translate(639,59)"/>
<path d="M0 0 C0.99 0.33 1.98 0.66 3 1 C3 3.31 3 5.62 3 8 C2.01 7.67 1.02 7.34 0 7 C0 4.69 0 2.38 0 0 Z " fill="#F9DFB5" transform="translate(692,567)"/>
<path d="M0 0 C0.99 0 1.98 0 3 0 C3 3.96 3 7.92 3 12 C2.67 12 2.34 12 2 12 C1.93941406 11.38511719 1.87882813 10.77023437 1.81640625 10.13671875 C1.73261719 9.32847656 1.64882813 8.52023437 1.5625 7.6875 C1.48128906 6.88699219 1.40007813 6.08648437 1.31640625 5.26171875 C1.04734307 2.83912821 1.04734307 2.83912821 0 0 Z " fill="#48393F" transform="translate(695,483)"/>
<path d="M0 0 C0.33 0.66 0.66 1.32 1 2 C1.99 2.33 2.98 2.66 4 3 C3.01 3 2.02 3 1 3 C1 5.31 1 7.62 1 10 C1.66 10.33 2.32 10.66 3 11 C2.01 11 1.02 11 0 11 C-0.19491452 9.54263913 -0.38069358 8.08405407 -0.5625 6.625 C-0.66691406 5.81289063 -0.77132812 5.00078125 -0.87890625 4.1640625 C-1 2 -1 2 0 0 Z " fill="#E2EEDB" transform="translate(676,408)"/>
<path d="M0 0 C0.33 0 0.66 0 1 0 C1 2.97 1 5.94 1 9 C0.34 8.01 -0.32 7.02 -1 6 C-1.99 5.67 -2.98 5.34 -4 5 C-4 4.34 -4 3.68 -4 3 C-3.01 3 -2.02 3 -1 3 C-0.67 2.01 -0.34 1.02 0 0 Z " fill="#403B50" transform="translate(476,133)"/>
<path d="M0 0 C0.99 1.485 0.99 1.485 2 3 C2.99 3.33 3.98 3.66 5 4 C5 4.66 5 5.32 5 6 C3.35 6.33 1.7 6.66 0 7 C0 4.69 0 2.38 0 0 Z " fill="#5C4247" transform="translate(469,135)"/>
<path d="M0 0 C0.99 0 1.98 0 3 0 C3.33 1.32 3.66 2.64 4 4 C2.35 4.33 0.7 4.66 -1 5 C-0.67 3.35 -0.34 1.7 0 0 Z " fill="#7F5917" transform="translate(618,62)"/>
<path d="M0 0 C1.32 0.33 2.64 0.66 4 1 C3.34 2.98 2.68 4.96 2 7 C1.34 7 0.68 7 0 7 C0 4.69 0 2.38 0 0 Z " fill="#D97A16" transform="translate(707,60)"/>
<path d="M0 0 C0.66 0 1.32 0 2 0 C2 0.99 2 1.98 2 3 C2.66 3 3.32 3 4 3 C4 4.32 4 5.64 4 7 C3.01 7 2.02 7 1 7 C0.67 4.69 0.34 2.38 0 0 Z " fill="#CB8115" transform="translate(662,60)"/>
</svg>
